<?xml version="1.0" standalone="no"?>
<!DOCTYPE svg PUBLIC "-//W3C//DTD SVG 20010904//EN"
 "http://www.w3.org/TR/2001/REC-SVG-20010904/DTD/svg10.dtd">
<svg version="1.0" xmlns="http://www.w3.org/2000/svg"
 width="1080.000000pt" height="1080.000000pt" viewBox="0 0 1080.000000 1080.000000"
 preserveAspectRatio="xMidYMid meet">
<metadata>
Created by potrace 1.14, written by Peter Selinger 2001-2017
</metadata>
<g transform="translate(0.000000,1080.000000) scale(0.100000,-0.100000)"
fill="#000000" stroke="none">
<path d="M0 5844 c0 -4541 1 -4955 16 -4943 15 12 15 10 0 -25 -13 -32 -16
-82 -16 -293 l0 -255 26 6 c19 5 25 3 22 -6 -3 -7 -14 -14 -26 -16 -17 -3 -22
-10 -22 -33 0 -16 5 -29 12 -29 9 0 9 -3 0 -12 -8 -8 -12 -50 -11 -127 1 -81
3 -106 9 -82 4 18 14 37 22 42 19 12 22 -7 4 -33 -9 -12 -16 -26 -16 -30 0 -5
292 -8 649 -8 l649 0 13 53 c7 28 13 61 14 72 1 11 6 18 11 15 5 -3 8 -9 6
-15 -2 -5 -4 -19 -5 -30 0 -11 -5 -25 -10 -32 -5 -7 -6 -17 -2 -23 4 -6 1 -17
-5 -25 -11 -13 4 -15 114 -15 83 0 134 4 147 12 17 10 23 10 26 1 3 -7 10 -13
16 -13 5 0 7 3 4 7 -10 9 13 34 25 27 5 -3 4 -11 -2 -19 -10 -12 19 -14 173
-14 166 -1 186 1 193 17 4 9 6 23 5 31 -2 12 3 11 23 -3 23 -14 26 -14 26 -1
0 8 5 15 10 15 6 0 10 16 10 35 0 19 5 35 10 35 13 0 1 -82 -14 -92 -6 -4 1
-8 17 -8 20 0 31 7 39 25 9 20 14 22 25 13 10 -8 20 -8 38 0 18 8 26 8 34 -2
16 -19 -7 -36 -46 -36 -23 0 -33 -5 -33 -15 0 -13 16 -15 100 -12 60 2 105 8
112 15 7 7 25 12 41 12 22 0 28 -4 23 -15 -5 -13 22 -15 207 -15 l213 0 18 37
c14 29 15 38 4 44 -10 6 -8 12 7 23 11 8 20 23 20 33 0 11 7 18 20 18 34 1
120 16 132 23 6 4 15 36 19 71 13 95 34 92 31 -4 -2 -86 8 -77 -112 -98 -67
-12 -70 -13 -73 -42 -2 -17 -8 -34 -13 -39 -15 -16 -10 -56 8 -63 9 -4 19 -1
21 5 2 7 13 12 23 12 11 0 17 -4 14 -10 -4 -6 1340 -10 3900 -10 l3905 0 0
5400 0 5400 -5400 0 -5400 0 0 -4956z m1580 4699 c0 -5 -5 -15 -10 -23 -8 -12
-10 -11 -10 8 0 12 5 22 10 22 6 0 10 -3 10 -7z m-23 -75 c-3 -7 -5 -2 -5 12
0 14 2 19 5 13 2 -7 2 -19 0 -25z m2510 -1000 c-3 -8 -6 -5 -6 6 -1 11 2 17 5
13 3 -3 4 -12 1 -19z m324 -113 c-22 -105 -45 -190 -61 -225 l-10 -25 4 25 c7
47 81 329 84 321 1 -4 -6 -47 -17 -96z m2502 20 c-8 -22 -22 -18 -16 5 3 11 9
17 14 15 4 -3 6 -12 2 -20z m-3083 -229 c0 -11 -19 -15 -25 -6 -3 5 1 10 9 10
9 0 16 -2 16 -4z m40 -526 c0 -5 -4 -10 -9 -10 -6 0 -13 5 -16 10 -3 6 1 10 9
10 9 0 16 -4 16 -10z m3101 -115 c0 -5 -9 -11 -21 -13 -15 -3 -18 1 -14 13 7
17 35 17 35 0z m-141 -65 c0 -5 -7 -10 -15 -10 -8 0 -15 5 -15 10 0 6 7 10 15
10 8 0 15 -4 15 -10z m-163 -142 c-3 -7 -5 -2 -5 12 0 14 2 19 5 13 2 -7 2
-19 0 -25z m-1882 2 c9 -14 -13 -50 -30 -50 -10 0 -15 10 -15 30 0 23 5 30 19
30 11 0 23 -4 26 -10z m1984 -84 c-2 -19 -1 -37 1 -40 7 -6 97 -18 160 -21 30
-1 68 -7 83 -14 40 -16 74 -14 85 6 9 14 10 14 16 -5 8 -25 74 -39 105 -23 16
9 24 7 38 -9 15 -16 29 -19 75 -16 47 3 57 0 61 -14 5 -19 48 -29 147 -34 30
-2 89 -13 130 -26 41 -12 86 -23 100 -25 14 -2 26 -4 28 -4 1 -1 3 0 5 1 1 1
13 -5 27 -12 14 -7 46 -12 73 -11 37 2 47 -1 47 -13 0 -14 3 -14 23 -4 12 7
25 17 28 21 9 13 50 -49 43 -66 -4 -12 5 -15 52 -16 32 0 66 -7 79 -15 20 -13
24 -13 38 1 18 18 37 9 37 -18 0 -23 19 -32 69 -33 39 -1 140 -45 141 -61 0
-5 -16 -26 -35 -45 -135 -137 -150 -149 -190 -156 -27 -4 -50 -18 -71 -40 -22
-23 -37 -31 -52 -27 -12 3 -35 -2 -53 -11 -18 -9 -38 -16 -46 -16 -7 0 -13 -4
-13 -10 0 -5 -7 -10 -15 -10 -22 0 -125 -51 -125 -62 0 -5 -10 -6 -22 -2 -17
5 -27 0 -44 -22 -20 -24 -24 -26 -30 -11 -8 21 -22 22 -46 0 -16 -14 -22 -14
-43 -3 -20 11 -27 11 -40 0 -9 -7 -14 -19 -11 -27 3 -7 1 -13 -4 -13 -6 0 -10
7 -10 15 0 12 -4 12 -27 0 -16 -8 -49 -24 -75 -36 -36 -17 -48 -28 -48 -45 0
-29 -10 -54 -21 -54 -5 0 -9 11 -9 25 0 22 -3 24 -19 15 -11 -5 -33 -10 -50
-10 -20 0 -34 -7 -41 -20 -7 -13 -21 -20 -40 -20 -38 0 -60 -9 -60 -26 0 -9
-11 -14 -29 -14 -31 0 -102 -27 -112 -42 -3 -5 -39 -18 -80 -29 -41 -11 -75
-23 -77 -29 -2 -5 -20 -14 -40 -21 -20 -7 -54 -23 -74 -36 -21 -12 -45 -23
-54 -23 -9 0 -40 -15 -70 -32 -45 -27 -55 -39 -60 -68 -11 -61 -23 -68 -18
-10 4 54 0 53 -22 -5 -13 -36 -46 -149 -50 -175 -20 -126 -36 -204 -41 -214
-4 -6 -6 -18 -5 -28 2 -9 -2 -19 -8 -23 -5 -3 -10 -19 -10 -35 0 -16 -4 -32
-10 -35 -13 -8 -13 46 1 82 6 15 12 44 14 63 2 19 13 76 24 125 12 50 26 117
32 149 5 32 15 68 20 78 6 11 8 26 5 35 -5 11 -20 -2 -58 -46 -37 -44 -56 -60
-69 -56 -11 4 -30 -6 -52 -24 -19 -17 -37 -28 -41 -24 -3 3 -6 -4 -6 -16 0
-12 -9 -47 -21 -79 -11 -31 -24 -77 -29 -102 -15 -79 -31 -135 -41 -144 -14
-15 -11 9 16 129 14 61 25 126 25 146 l0 37 -42 -13 c-54 -15 -62 -35 -14 -35
20 0 36 -4 36 -10 0 -10 -56 -15 -123 -11 -46 3 -93 -35 -83 -67 4 -13 1 -22
-9 -26 -8 -3 -15 -16 -15 -30 0 -22 -5 -24 -52 -28 -30 -2 -56 1 -60 7 -5 6
-8 5 -8 -4 0 -15 -38 -61 -50 -61 -4 0 -5 12 -3 28 4 23 3 24 -7 9 -6 -9 -16
-15 -22 -11 -19 12 -120 -29 -131 -54 -6 -13 -16 -21 -24 -18 -7 3 -13 1 -13
-4 0 -6 -7 -10 -15 -10 -8 0 -15 -8 -15 -17 0 -15 -2 -16 -10 -3 -7 12 -12 12
-22 2 -6 -6 -21 -12 -31 -12 -11 0 -40 -20 -65 -45 -40 -40 -46 -43 -57 -29
-8 12 -14 14 -19 6 -4 -7 -18 -12 -30 -12 -28 0 -76 -36 -76 -56 0 -10 -7 -13
-23 -9 -39 10 -61 -26 -68 -114 -9 -102 -29 -259 -38 -296 -15 -55 -26 2 -13
65 7 31 12 86 12 123 0 38 7 84 15 104 16 38 20 73 8 73 -56 -1 -193 -103
-193 -143 -1 -22 -1 -22 -13 -2 -12 22 -46 23 -48 2 -3 -30 2 -154 6 -168 9
-26 -24 -31 -53 -8 -24 19 -27 19 -32 3 -5 -14 -8 -15 -15 -5 -6 11 -9 11 -16
0 -6 -10 -9 -8 -9 9 0 41 -30 19 -77 -56 l-24 -37 6 70 c4 46 3 65 -3 56 -6
-8 -19 -12 -31 -8 -24 6 -43 -22 -56 -83 -4 -19 -15 -45 -23 -58 -13 -20 -17
-21 -24 -8 -5 9 -13 14 -19 11 -5 -4 -9 2 -9 12 0 17 -17 20 -72 14 -3 -1 -9
-16 -13 -33 -36 -181 -51 -200 -56 -70 -2 45 -8 73 -16 76 -7 3 -10 -1 -6 -10
7 -20 -6 -66 -17 -59 -9 6 -14 -16 -13 -52 1 -7 -3 -10 -8 -7 -5 3 -18 -14
-29 -39 -22 -48 -66 -79 -77 -52 -4 12 -11 9 -28 -16 l-24 -31 -10 39 c-14 48
-14 63 -1 63 6 0 10 5 10 11 0 15 -39 1 -77 -27 -17 -13 -36 -24 -42 -24 -6 0
-11 -5 -11 -10 0 -6 -8 -14 -17 -17 -10 -4 -35 -18 -56 -31 -28 -19 -35 -28
-25 -35 9 -6 8 -7 -4 -3 -19 6 -70 -22 -119 -64 -24 -21 -32 -40 -49 -120 -11
-52 -27 -117 -36 -145 -9 -27 -20 -75 -25 -105 -16 -114 -40 -190 -60 -190 -8
0 9 130 19 144 9 11 29 146 34 226 2 25 5 47 8 50 14 14 30 52 30 70 0 20 -1
20 -26 4 -14 -9 -23 -23 -20 -30 2 -6 -4 -52 -15 -101 -11 -48 -21 -99 -23
-113 -3 -22 -15 -80 -46 -218 -6 -23 -10 -53 -10 -65 0 -13 -7 -32 -15 -43
-18 -24 -18 -23 -1 72 8 44 19 113 26 154 6 41 15 92 20 114 21 95 -40 -52
-76 -184 -8 -30 -19 -64 -24 -75 -5 -11 -14 -36 -20 -55 -9 -33 -9 -32 -4 13
8 68 12 89 23 112 15 29 48 179 43 193 -5 17 -22 4 -22 -17 0 -10 -11 -26 -25
-35 -14 -9 -25 -13 -25 -8 0 4 -21 9 -47 10 -27 0 -42 -1 -35 -4 17 -8 15 -27
-3 -20 -10 4 -17 -6 -25 -34 -14 -53 -41 -56 -29 -3 14 66 2 47 -26 -39 -15
-46 -33 -92 -38 -103 -6 -11 -23 -54 -38 -95 -56 -158 -72 -200 -75 -197 -5 5
21 93 70 231 25 71 44 132 43 135 -1 3 4 16 11 28 9 17 9 22 -3 27 -11 4 -15
-2 -15 -19 0 -13 -8 -30 -19 -37 -21 -15 -71 -116 -71 -145 0 -11 -3 -23 -7
-27 -4 -4 -15 -31 -25 -59 -21 -64 -23 -41 -3 27 17 57 20 100 5 91 -5 -3 -10
-16 -10 -29 0 -12 -4 -26 -9 -31 -5 -6 -14 -35 -19 -65 -6 -30 -15 -71 -20
-90 l-10 -35 -1 36 c-1 20 8 72 19 115 11 44 19 97 18 119 -1 30 -2 33 -5 13
-2 -16 -11 -28 -19 -28 -8 0 -14 -5 -14 -11 0 -5 -4 -8 -9 -5 -5 3 -14 -7 -19
-24 -10 -26 -13 -28 -41 -20 -16 4 -32 6 -35 2 -3 -3 -6 0 -6 6 0 7 -12 12
-26 12 -41 0 -99 -65 -103 -115 -4 -53 -11 -59 -11 -8 0 27 -6 46 -20 58 -20
18 -20 17 -20 -8 0 -22 -6 -27 -35 -33 -20 -3 -35 -12 -35 -20 0 -24 -19 -15
-26 12 -6 22 -1 31 23 50 17 13 33 33 36 44 4 17 0 20 -28 20 -18 0 -38 -7
-45 -15 -12 -14 -15 -13 -35 5 -12 11 -28 20 -37 20 -9 0 -22 7 -29 16 -11 14
-10 18 5 30 13 9 16 19 11 31 -4 10 -7 32 -6 50 2 21 -3 34 -16 41 -16 10 -17
11 -1 17 9 4 25 2 36 -4 17 -9 20 -6 30 27 6 20 8 49 5 65 -6 31 4 35 23 10 7
-10 15 -16 18 -13 9 9 -6 50 -15 44 -6 -3 -7 12 -3 35 5 34 4 41 -10 41 -11 0
-16 -9 -16 -28 0 -15 -4 -32 -9 -38 -5 -5 -12 -20 -15 -34 -3 -14 -3 3 -1 38
2 34 8 69 15 77 6 8 14 29 16 47 3 18 12 38 21 45 9 7 13 19 10 26 -3 8 4 33
15 56 11 23 21 55 22 71 1 16 9 39 19 50 9 11 17 29 17 40 0 10 5 22 11 26 6
3 9 17 6 31 -3 15 1 27 9 30 8 3 14 16 14 28 0 31 10 56 20 50 8 -5 40 65 40
88 0 7 14 27 30 45 17 18 30 42 30 52 0 11 11 27 25 36 14 9 28 28 32 43 3 14
17 53 31 86 13 33 27 78 31 100 4 26 11 40 21 40 17 0 61 64 130 190 94 172
231 350 365 474 50 45 94 91 99 102 5 10 13 19 18 19 4 0 18 12 31 26 12 14
60 58 107 97 115 95 132 116 126 150 -3 15 -2 27 3 27 5 0 12 12 16 27 l7 28
18 -25 c16 -21 21 -23 44 -12 17 7 26 20 26 34 1 22 1 22 15 4 14 -19 15 -19
36 0 14 12 19 26 16 43 -6 30 2 53 14 45 5 -3 9 0 9 6 0 6 4 9 9 6 5 -3 11 3
14 14 3 11 12 20 21 20 9 0 16 8 16 20 0 11 4 20 9 20 5 0 11 -9 14 -20 3 -12
14 -20 26 -20 19 0 21 4 15 39 -5 33 -3 41 17 55 20 14 26 14 44 2 11 -8 20
-23 19 -35 -1 -27 22 -27 36 -1 7 13 21 20 40 20 39 0 46 16 21 51 -34 46 -28
61 13 34 23 -16 24 -15 30 29 8 48 22 67 32 42 8 -21 24 -10 24 15 0 26 25 24
44 -3 15 -22 16 -22 16 -2 0 30 19 44 51 37 24 -5 29 -2 29 15 0 13 9 23 23
28 12 4 25 12 29 18 4 6 12 -2 18 -21 12 -32 51 -56 58 -34 2 6 12 11 21 11
10 0 26 9 36 20 10 11 26 20 35 20 10 0 29 9 44 21 21 17 26 29 26 66 0 40 2
45 20 40 10 -3 24 1 31 9 6 8 15 12 19 9 4 -2 17 7 30 20 28 29 42 24 34 -13
-6 -27 -6 -26 14 4 22 34 59 64 79 64 10 0 10 -8 -2 -37 -8 -20 -13 -38 -11
-41 5 -4 36 64 36 79 0 12 24 11 36 -1 8 -8 15 -6 23 4 15 18 41 10 41 -11 0
-13 3 -13 15 -3 8 7 12 16 9 21 -3 5 6 20 19 34 18 20 37 28 78 32 30 3 57 11
61 18 4 7 24 22 43 34 l35 20 -6 -23 c-5 -20 -2 -25 18 -28 16 -2 28 5 40 24
20 32 63 46 90 29 24 -15 55 -6 63 20 6 19 19 23 62 19 12 0 33 6 47 16 26 16
26 16 26 -12 l0 -29 19 24 c16 20 21 22 41 11 20 -11 25 -9 46 16 23 29 23 29
24 5 0 -19 4 -22 23 -17 39 12 82 13 95 3 8 -6 16 -6 25 0 6 6 63 10 125 9 62
-1 115 2 118 6 3 4 25 8 48 8 49 0 116 24 116 42 0 6 11 -2 25 -18 l26 -29 27
32 c15 18 28 33 30 33 2 0 2 -16 1 -34z m1311 -86 c0 -5 -7 -10 -16 -10 -8 0
-12 5 -9 10 3 6 10 10 16 10 5 0 9 -4 9 -10z m-3820 -416 c0 -8 -7 -14 -15
-14 -17 0 -18 2 -9 24 7 18 24 12 24 -10z m72 -126 c-9 -9 -12 -7 -12 12 0 19
3 21 12 12 9 -9 9 -15 0 -24z m5616 -55 c-4 -22 -22 -20 -26 1 -2 10 3 16 13
16 10 0 15 -7 13 -17z m-6262 -90 c-11 -11 -17 4 -9 23 7 18 8 18 11 1 2 -10
1 -21 -2 -24z m470 -98 c-7 -18 -26 -20 -26 -2 0 18 24 41 28 27 2 -6 1 -17
-2 -25z m-206 -36 c0 -24 -23 -21 -28 4 -2 10 3 17 12 17 10 0 16 -9 16 -21z
m3426 -187 c-11 -10 -14 3 -7 38 l6 35 3 -33 c2 -19 1 -36 -2 -40z m54 32 c0
-2 -7 -4 -15 -4 -8 0 -15 4 -15 10 0 5 7 7 15 4 8 -4 15 -8 15 -10z m-3549
-66 c-9 -25 -31 -36 -31 -16 0 15 19 38 32 38 4 0 4 -10 -1 -22z m-101 -3 c0
-8 -7 -15 -15 -15 -9 0 -12 6 -9 15 4 8 10 15 15 15 5 0 9 -7 9 -15z m-30
-115 c0 -5 -7 -10 -15 -10 -8 0 -15 5 -15 10 0 6 7 10 15 10 8 0 15 -4 15 -10z
m3156 -87 c-11 -11 -19 6 -11 24 8 17 8 17 12 0 3 -10 2 -21 -1 -24z m-136
-57 c0 -3 -7 -37 -15 -76 -18 -85 -40 -129 -30 -62 10 77 27 142 36 142 5 0 9
-2 9 -4z m648 -138 c-4 -29 -38 -38 -38 -10 0 22 8 32 27 32 9 0 13 -8 11 -22z
m132 -67 c0 -22 -15 -35 -30 -26 -7 4 -7 13 0 26 14 25 30 25 30 0z m-839 -42
c-5 -13 -10 -19 -10 -12 -1 15 10 45 15 40 3 -2 0 -15 -5 -28z m-711 -311 c0
-9 -4 -20 -10 -23 -6 -4 -10 9 -10 32 0 28 3 34 10 23 5 -8 10 -23 10 -32z
m209 -70 c-15 -27 -28 -21 -24 10 2 15 4 34 5 42 0 9 6 6 14 -10 10 -17 11
-30 5 -42z m-377 10 c16 -15 31 -20 73 -23 16 -1 31 -7 33 -14 2 -6 19 -11 38
-11 27 0 34 -4 34 -19 0 -11 3 -26 6 -35 4 -11 1 -16 -10 -16 -9 0 -16 6 -16
14 0 19 -19 31 -31 19 -16 -16 1 -43 27 -43 28 0 23 -26 -7 -35 -16 -5 -19
-14 -17 -43 2 -30 -1 -39 -20 -47 -24 -10 -82 -114 -82 -146 0 -10 -5 -21 -12
-25 -8 -5 -9 0 -4 17 5 13 9 40 10 59 1 19 5 40 9 46 8 13 -39 48 -53 39 -5
-3 -12 0 -15 6 -9 13 -44 -21 -38 -37 2 -7 0 -15 -6 -19 -10 -6 -15 10 -14 43
1 20 -56 72 -72 65 -10 -3 -15 2 -15 16 0 12 -4 21 -10 21 -15 0 -12 28 3 37
8 4 16 16 20 26 3 9 13 17 22 17 8 0 15 5 15 10 0 6 14 10 30 10 23 0 30 4 30
20 0 13 7 20 20 20 13 0 20 7 20 20 0 23 12 26 32 8z m-5152 -26 c0 -15 -5
-33 -12 -40 -27 -27 -36 -5 -18 42 13 34 30 33 30 -2z m4610 -244 c-11 -62
-20 -127 -20 -145 0 -31 -19 -58 -21 -31 -4 29 3 98 17 178 9 47 17 101 20
120 3 19 8 51 12 70 6 32 7 29 10 -22 2 -32 -6 -108 -18 -170z m-182 63 c1
-15 -4 -43 -12 -61 l-13 -32 -7 27 c-6 25 11 95 24 95 3 0 7 -13 8 -29z m675
-77 c-5 -13 -2 -15 15 -9 19 5 22 3 21 -22 0 -23 -2 -25 -8 -9 -5 14 -10 16
-15 8 -4 -7 -5 -16 -2 -21 6 -10 -24 -25 -32 -16 -3 3 0 5 7 5 10 0 11 10 7
33 -3 18 -3 36 1 40 11 11 13 8 6 -9z m2287 -64 c0 -16 -4 -30 -10 -30 -5 0
-10 14 -10 30 0 17 5 30 10 30 6 0 10 -13 10 -30z m-2957 -7 c4 -3 2 -12 -4
-20 -9 -10 -15 -10 -25 -2 -8 6 -11 15 -8 20 6 11 28 12 37 2z m-2753 -42 c0
-14 -18 -23 -31 -15 -8 4 -7 9 2 15 18 11 29 11 29 0z m2480 -66 c0 -19 -5
-35 -10 -35 -6 0 -10 16 -8 35 1 19 6 35 10 35 4 0 8 -16 8 -35z m-3285 -161
c-7 -56 -21 -76 -36 -53 -12 19 -11 69 1 69 6 0 10 4 10 9 0 5 5 22 12 38 9
23 12 25 16 9 2 -10 1 -43 -3 -72z m5438 62 c6 -14 0 -26 -14 -26 -3 0 -9 9
-12 20 -6 23 18 28 26 6z m-1515 -56 c0 -23 -4 -30 -19 -30 -19 0 -25 11 -11
24 4 4 8 12 8 17 3 17 4 19 12 19 5 0 9 -13 10 -30z m1662 -20 c23 10 33 9 50
-3 16 -11 18 -16 8 -20 -9 -4 -7 -6 5 -6 9 -1 17 -7 17 -15 0 -8 8 -17 18 -20
9 -3 26 -21 36 -38 l20 -33 6 47 c7 58 22 77 45 58 9 -8 27 -14 41 -15 22 -1
74 -43 74 -62 0 -4 7 -16 14 -26 12 -16 17 -16 35 -5 12 7 21 21 21 30 0 10 7
18 15 18 17 0 20 -16 5 -25 -5 -3 -10 -20 -10 -36 0 -17 -5 -39 -10 -50 -8
-15 -7 -23 5 -36 15 -14 17 -14 21 3 3 11 16 24 29 30 26 13 35 3 35 -38 0
-20 1 -20 19 -4 11 10 39 19 62 21 36 2 45 -1 54 -19 6 -11 20 -25 33 -31 28
-12 30 -51 2 -60 -23 -7 -25 -26 -9 -57 11 -20 12 -21 25 -4 11 15 15 16 27 5
8 -7 12 -20 10 -29 -2 -8 1 -21 6 -29 7 -12 18 -6 50 29 35 38 43 42 71 37 28
-6 32 -3 45 26 8 17 14 25 15 16 0 -15 4 -15 37 -4 30 10 44 10 80 -2 24 -8
43 -20 43 -27 0 -8 20 -12 63 -12 80 1 116 -8 134 -34 8 -11 19 -18 24 -14 5
3 19 -6 30 -20 12 -15 31 -26 45 -26 21 0 24 4 24 40 0 22 5 40 10 40 6 0 10
-15 10 -34 0 -44 9 -68 23 -59 5 3 15 -1 22 -10 14 -19 8 -67 -7 -67 -17 0 10
-27 32 -33 11 -3 20 -1 20 4 0 6 9 5 20 -1 11 -6 24 -9 29 -6 5 3 16 -5 25
-19 9 -14 22 -25 29 -25 6 0 26 -13 42 -28 37 -35 55 -31 55 11 0 18 3 43 7
55 10 40 23 3 23 -68 0 -65 10 -90 36 -90 7 0 25 -11 40 -25 15 -14 35 -25 45
-25 10 0 26 -12 36 -27 9 -16 18 -30 20 -32 2 -3 10 4 18 15 13 18 14 17 15
-17 0 -28 5 -38 19 -42 16 -4 21 2 26 34 10 57 29 52 26 -6 -1 -31 31 -88 57
-101 13 -6 35 -28 49 -48 29 -40 35 -43 53 -21 14 16 40 20 40 6 0 -5 -7 -14
-15 -21 -8 -7 -15 -20 -15 -29 0 -10 7 -26 15 -37 14 -18 16 -18 29 -1 18 23
36 22 36 -3 0 -27 26 -25 34 3 3 12 8 56 11 97 l6 75 -18 -42 c-22 -50 -33
-63 -33 -37 0 11 14 48 31 82 22 46 32 82 35 130 5 94 44 234 42 153 -1 -17 6
-39 14 -49 16 -18 13 -38 -13 -87 -9 -16 -21 -70 -28 -120 -7 -49 -16 -104
-22 -121 -5 -17 -9 -53 -9 -80 0 -27 -4 -55 -8 -62 -9 -14 -4 -72 7 -72 8 1
61 112 62 131 1 8 5 -6 10 -30 5 -28 5 -49 -1 -56 -5 -7 -7 -14 -4 -18 3 -3
-2 -21 -11 -40 -13 -29 -14 -40 -4 -58 11 -22 12 -21 26 22 8 24 26 55 39 69
l25 25 -7 -41 c-6 -40 7 -67 21 -44 3 5 15 10 25 10 10 0 20 6 23 13 2 6 8 9
12 5 10 -9 -26 -87 -39 -85 -6 1 -12 -19 -14 -47 -2 -36 0 -47 10 -44 7 3 15
13 17 23 4 25 22 40 49 41 25 1 30 -23 7 -32 -17 -7 -55 -69 -55 -91 0 -12 3
-13 14 -4 9 8 16 8 20 2 4 -6 13 -8 20 -5 8 3 17 1 20 -5 5 -7 13 -7 25 1 15
9 23 7 42 -11 13 -12 34 -24 46 -27 13 -4 23 -10 23 -16 0 -5 -10 -6 -22 -2
-27 9 -45 9 -75 -1 -18 -6 -23 -3 -23 11 -1 16 -3 15 -14 -5 -21 -38 -1 -91
34 -91 10 0 21 -6 23 -12 4 -10 7 -10 14 -1 7 9 12 8 23 -7 8 -11 20 -20 27
-20 7 0 13 -8 13 -17 0 -14 -2 -15 -9 -4 -7 10 -16 11 -37 4 -35 -12 -46 -61
-18 -84 16 -13 17 -11 10 26 -4 22 -3 35 1 29 10 -14 53 -25 53 -13 0 14 26
11 38 -4 6 -7 13 -28 16 -47 2 -19 8 -45 11 -57 5 -16 0 -28 -17 -45 -24 -23
-25 -48 -3 -100 5 -13 0 -21 -18 -29 -14 -6 -23 -17 -21 -23 3 -7 0 -23 -5
-37 -8 -21 -10 -21 -11 -4 -1 20 -1 20 -15 1 -13 -17 -13 -22 0 -36 18 -20 10
-51 -11 -43 -9 3 -14 -2 -14 -17 0 -16 -5 -21 -22 -18 -16 2 -24 12 -29 38 -4
19 -4 41 1 50 5 9 3 22 -5 33 -13 18 -45 23 -45 7 0 -5 7 -10 15 -10 18 0 19
-12 5 -62 -13 -46 -32 -53 -64 -23 -16 15 -32 21 -46 18 -15 -4 -26 1 -36 16
-9 12 -31 28 -49 35 -19 8 -73 55 -121 105 -48 49 -100 95 -115 102 -34 14
-79 5 -79 -16 0 -8 -7 -15 -16 -15 -12 0 -15 6 -10 23 4 12 9 39 11 60 3 21 7
42 9 46 3 4 -12 6 -32 3 -20 -2 -113 -2 -207 -1 -93 2 -200 3 -237 4 -38 0
-68 3 -68 7 0 4 -12 8 -27 10 -16 2 -28 8 -28 13 0 14 91 18 126 6 36 -12 59
-5 59 19 0 20 -15 28 -69 36 -44 7 -43 7 -43 39 0 35 -31 33 -57 -3 -11 -16
-41 -39 -68 -52 -26 -13 -60 -32 -74 -41 -14 -10 -37 -21 -51 -24 -26 -7 -70
-45 -52 -45 5 0 27 7 49 15 62 22 67 20 59 -20 -6 -33 3 -45 20 -27 4 4 11 7
14 8 7 1 32 10 71 25 28 11 34 8 25 -15 -3 -9 -16 -16 -29 -16 -13 0 -25 -6
-28 -14 -3 -7 -18 -16 -34 -19 -51 -12 -55 -19 -58 -108 -2 -69 -8 -96 -33
-150 -26 -57 -36 -69 -73 -86 -57 -27 -80 -35 -104 -40 -23 -4 -55 -38 -55
-59 0 -20 27 -17 50 6 10 10 22 16 24 11 5 -7 91 7 142 23 15 4 31 -4 62 -34
23 -23 46 -39 51 -36 18 12 29 -40 18 -87 -8 -35 -7 -50 2 -61 19 -22 81 -149
81 -165 0 -8 7 -19 15 -25 8 -6 17 -27 20 -46 3 -19 10 -39 16 -44 19 -20 10
-46 -15 -46 -14 0 -28 5 -31 10 -3 6 -31 10 -61 10 -40 0 -54 -4 -54 -14 0 -8
9 -18 20 -21 22 -7 26 -20 8 -31 -6 -4 -17 1 -25 11 -12 18 -13 18 -13 -4 0
-17 -4 -22 -16 -17 -13 5 -15 1 -9 -21 9 -36 23 -53 39 -47 9 3 13 -4 14 -23
0 -51 17 -98 36 -101 15 -3 18 1 13 17 -3 12 -1 21 4 21 4 0 8 20 7 45 0 37
-4 45 -19 45 -11 0 -19 7 -19 15 0 8 4 15 10 15 12 0 60 48 60 61 0 5 18 -1
40 -13 22 -13 40 -27 40 -31 0 -5 16 -43 36 -85 20 -42 41 -88 47 -102 6 -14
12 -28 14 -32 2 -3 -15 1 -38 10 -33 12 -42 13 -49 3 -5 -8 -18 -11 -36 -7
-40 8 -63 -7 -47 -33 15 -24 10 -29 -26 -23 -22 3 -28 8 -24 23 7 26 -22 35
-52 15 -13 -9 -26 -16 -29 -16 -2 0 -26 43 -52 95 -26 52 -55 103 -64 113 -9
9 -32 43 -51 74 -19 31 -61 100 -94 153 -33 53 -65 105 -71 116 -6 10 -18 27
-27 37 -10 10 -30 46 -47 79 -16 34 -34 64 -40 68 -7 4 -8 11 -2 18 15 19 10
47 -7 49 -21 2 -25 1 -96 -15 -52 -11 -60 -16 -63 -37 -2 -19 7 -32 34 -54 36
-28 36 -28 30 -5 -7 23 -7 23 8 5 9 -11 16 -26 16 -33 0 -14 40 -63 102 -122
20 -20 42 -47 47 -61 6 -14 19 -36 28 -50 15 -21 11 -19 -27 10 -25 19 -61 48
-81 65 -20 16 -49 40 -65 52 -149 114 -203 169 -158 161 18 -3 47 38 38 53 -9
15 -64 -13 -64 -32 0 -24 -6 -24 -37 1 -23 18 -41 19 -270 19 -155 0 -253 -4
-266 -10 -11 -6 -34 -27 -51 -47 -17 -19 -68 -72 -113 -117 -46 -44 -83 -86
-83 -92 0 -6 -12 -25 -26 -42 -16 -20 -24 -38 -20 -48 10 -25 -11 -32 -54 -17
-22 8 -57 12 -79 10 -63 -5 -69 10 -45 106 6 27 5 28 -24 22 -17 -4 -32 -1
-36 5 -13 20 -55 12 -72 -14 -11 -17 -25 -25 -44 -25 -50 0 -86 -42 -115 -133
-14 -45 -50 -132 -80 -194 -52 -109 -53 -112 -34 -129 10 -9 19 -13 19 -9 0 5
5 4 12 -3 7 -7 24 -12 39 -12 40 0 79 -17 79 -34 0 -8 -13 -23 -30 -33 -16 -9
-31 -25 -31 -35 -1 -10 -2 -24 -3 -30 -2 -24 -27 -30 -47 -12 -11 10 -19 12
-19 6 0 -7 -7 -12 -16 -12 -9 0 -14 -7 -12 -17 4 -25 -60 -89 -75 -74 -8 8 -5
16 11 32 23 20 21 49 -1 31 -7 -5 -23 -13 -36 -17 -22 -7 -23 -5 -17 20 6 24
5 27 -11 20 -22 -9 -29 -9 -70 0 -30 7 -31 6 -26 -16 6 -22 5 -23 -10 -7 -14
13 -23 14 -52 5 -40 -12 -54 -5 -35 18 15 19 5 34 -12 17 -7 -7 -22 -12 -35
-12 -14 0 -23 -6 -23 -15 0 -15 -40 -22 -53 -9 -12 12 -137 16 -137 5 0 -6 -4
-11 -10 -11 -5 0 -10 7 -10 15 0 8 -4 15 -10 15 -5 0 -10 -7 -10 -15 0 -23
-18 -18 -36 11 -10 15 -23 23 -31 20 -12 -5 -13 1 -8 27 4 17 12 38 17 44 14
18 31 16 24 -2 -3 -8 -1 -15 5 -15 6 0 18 18 27 40 11 25 24 40 35 40 9 0 17
5 17 11 0 6 12 9 28 7 24 -3 27 -7 26 -35 -2 -38 10 -43 27 -11 7 13 19 29 28
36 14 11 13 12 -6 7 -22 -6 -31 4 -16 19 4 4 8 15 8 24 0 9 5 17 11 17 13 0
84 74 84 87 0 5 -17 -7 -37 -26 -21 -19 -40 -33 -43 -30 -3 3 3 11 13 18 9 7
17 21 17 30 0 9 11 21 24 27 24 11 37 30 56 82 8 24 7 27 -10 27 -14 0 -20 7
-20 21 0 15 5 19 15 15 8 -3 26 5 40 18 21 20 25 32 25 80 0 35 6 66 16 81 11
16 14 40 11 79 -6 77 -17 89 -21 22 -1 -11 -6 -21 -12 -23 -14 -5 0 95 16 111
12 12 13 96 0 116 -6 9 -5 17 3 22 9 5 9 10 -1 20 -6 6 -12 22 -12 33 0 12 -9
30 -20 40 -11 10 -20 25 -20 33 0 22 -107 177 -170 247 -68 75 -76 82 -188
179 -51 44 -94 88 -98 98 -7 23 5 45 16 28 6 -9 10 -7 14 8 6 17 13 20 44 15
20 -2 48 -9 62 -13 14 -5 52 -14 85 -20 33 -5 87 -23 120 -40 76 -37 227 -124
257 -147 34 -27 138 -135 138 -143 0 -4 14 -25 31 -46 32 -41 139 -247 139
-269 0 -7 11 -36 25 -63 16 -31 25 -67 25 -95 0 -40 3 -48 28 -59 24 -12 32
-11 64 7 21 11 44 35 55 57 25 51 170 197 202 204 54 12 180 54 281 94 58 23
118 47 134 53 33 12 66 44 66 64 0 8 -16 30 -35 50 -47 49 -47 87 0 133 35 36
46 70 21 70 -8 0 -17 11 -20 24 -3 13 -18 32 -33 42 -33 22 -112 54 -134 54
-9 0 -22 12 -30 27 -20 39 -90 102 -119 109 -14 3 -32 9 -41 14 -13 7 -18 4
-22 -10 -4 -17 -29 -21 -67 -11 -3 1 9 11 27 22 18 11 35 30 39 42 4 12 30 44
58 70 28 27 58 56 66 65 8 9 37 37 63 62 78 73 140 133 179 175 38 42 134 128
147 133 4 1 8 -21 10 -50 1 -29 7 -55 12 -59 7 -4 8 -26 5 -55 -5 -39 -2 -58
16 -94 23 -45 48 -64 48 -36 0 21 13 27 65 31 30 3 45 0 45 -8 0 -11 62 -57
76 -57 3 0 3 7 0 16 -5 14 -1 16 24 10 25 -4 36 0 59 22 30 30 89 134 94 169
2 11 9 28 16 37 7 8 10 23 7 33 -5 15 0 19 20 21 27 2 53 26 54 50 0 16 -25
15 -60 -3 -33 -17 -50 -43 -50 -74 0 -12 -5 -21 -10 -21 -6 0 -10 -6 -9 -12 4
-30 -2 -43 -11 -23 -8 17 -9 16 -9 -9 -1 -21 -5 -27 -17 -22 -10 4 -21 -4 -32
-25 -34 -63 -50 -77 -82 -74 -17 1 -33 5 -35 9 -3 3 -2 4 2 1 3 -3 13 5 21 17
14 20 13 23 -19 49 -19 16 -44 29 -56 29 -12 0 -25 5 -28 10 -3 6 -1 10 6 10
8 0 10 14 5 48 -6 45 -5 49 24 65 l30 18 0 -25 c0 -17 6 -26 16 -26 13 0 15 7
9 38 -5 31 -2 41 14 57 33 29 19 72 -14 45 -13 -11 -15 -7 -15 24 0 33 -4 38
-40 52 -22 9 -38 20 -35 24 3 5 -2 16 -11 24 -9 9 -20 32 -25 50 -7 27 -16 36
-38 41 -34 7 -96 -8 -151 -36 -29 -15 -48 -18 -77 -13 -43 8 -146 58 -137 67
4 3 15 0 26 -6 17 -10 23 -8 44 18 13 17 24 34 24 39 0 9 -83 3 -145 -10 -28
-5 -33 -2 -50 30 -11 20 -23 36 -27 36 -5 0 -8 6 -8 14 0 23 -50 56 -77 52
-26 -5 -63 23 -63 48 0 8 11 23 25 34 14 11 25 26 25 33 0 7 10 23 22 36 20
21 20 24 5 40 -12 14 -13 22 -5 37 9 16 8 18 -6 13 -9 -4 -16 -2 -16 2 0 5 -3
18 -6 28 -5 15 -4 15 5 3 9 -12 11 -12 11 -1 0 8 -8 20 -17 28 -10 8 -12 11
-4 7 10 -5 11 -1 6 17 l-7 24 17 -22 c9 -13 22 -23 30 -23 11 0 13 -11 9 -49
-4 -46 -3 -49 17 -44 16 4 17 8 7 14 -10 7 -9 9 4 9 10 0 19 -11 23 -29 9 -40
28 -56 45 -36 7 8 18 15 25 15 25 0 75 35 75 53 0 10 -4 16 -8 13 -5 -3 -7 28
-6 69 3 66 1 75 -16 80 -32 10 -50 34 -50 67 l0 30 26 -17 c21 -14 31 -15 54
-5z m-395 -31 c4 -6 5 -12 2 -15 -7 -7 -37 7 -37 17 0 13 27 11 35 -2z m-4104
-32 c-16 -16 -25 -1 -10 16 8 8 16 11 18 5 2 -5 -2 -15 -8 -21z m5892 -4 c-3
-7 -9 -13 -14 -13 -11 0 -12 34 -2 43 9 10 22 -13 16 -30z m-5753 12 c-7 -8
-16 -15 -21 -15 -5 0 -9 7 -9 15 0 9 9 15 21 15 18 0 19 -2 9 -15z m5830 -9
c0 -3 -4 -8 -10 -11 -5 -3 -10 -1 -10 4 0 6 5 11 10 11 6 0 10 -2 10 -4z
m-905 -38 c-4 -18 -8 -40 -9 -48 -1 -8 -6 -26 -10 -39 -6 -17 -10 -20 -16 -10
-5 7 -4 21 1 32 6 10 8 23 6 30 -4 11 22 67 31 67 3 0 1 -15 -3 -32z m2716
-35 c-15 -62 -43 -135 -48 -129 -5 5 34 163 44 179 12 20 15 -6 4 -50z m-2451
-15 c-1 -58 -2 -61 -15 -44 -15 20 -20 63 -9 90 13 34 24 13 24 -46z m970 33
c0 -12 -29 -35 -36 -28 -11 10 5 37 21 37 8 0 15 -4 15 -9z m-1830 -31 c0 -5
-2 -10 -4 -10 -3 0 -8 5 -11 10 -3 6 -1 10 4 10 6 0 11 -4 11 -10z m-4360 -25
c0 -8 -4 -15 -10 -15 -5 0 -10 7 -10 15 0 8 5 15 10 15 6 0 10 -7 10 -15z
m6925 -35 c-4 -12 -9 -19 -12 -17 -3 3 -2 15 2 27 4 12 9 19 12 17 3 -3 2 -15
-2 -27z m1121 18 c4 -6 2 -14 -4 -16 -6 -2 -17 -22 -23 -45 -6 -23 -19 -51
-29 -62 -10 -11 -30 -58 -43 -105 -14 -47 -34 -105 -46 -130 -19 -42 -21 -43
-21 -16 0 16 8 54 19 85 10 31 29 88 41 126 45 142 60 175 80 175 10 0 22 -5
26 -12z m-5565 -18 c14 -8 19 -21 19 -51 0 -47 -15 -56 -69 -43 -31 8 -36 13
-39 41 -5 48 44 77 89 53z m4196 -32 c-3 -8 -6 -5 -6 6 -1 11 2 17 5 13 3 -3
4 -12 1 -19z m-5487 -18 c0 11 3 11 11 -4 9 -15 13 -16 20 -5 7 11 9 9 9 -6 0
-21 -34 -32 -45 -15 -3 4 -14 6 -25 3 -15 -4 -20 0 -20 16 0 12 4 20 9 16 5
-3 13 0 17 7 5 8 10 6 15 -8 5 -13 8 -14 9 -4z m850 -4 c0 -7 -7 -13 -15 -13
-17 0 -17 0 -9 21 7 18 24 12 24 -8z m-2176 -11 c-9 -22 -34 -27 -34 -6 0 23
8 31 25 24 8 -2 11 -11 9 -18z m1713 -22 c-23 -143 -56 -254 -57 -192 0 14 6
48 14 75 8 27 17 73 21 102 4 28 12 52 17 52 7 0 8 -14 5 -37z m299 -22 c28
15 29 14 37 -31 3 -19 3 -29 0 -22 -8 21 -32 14 -26 -8 6 -22 -8 -26 -37 -10
-15 8 -19 5 -24 -14 -9 -37 -45 -76 -71 -76 -27 0 -39 31 -20 56 7 10 10 34 7
60 -4 40 -4 42 22 37 18 -4 28 0 32 11 6 16 8 16 31 0 21 -13 29 -14 49 -3z
m84 -21 c0 -5 -9 -10 -20 -10 -11 0 -20 5 -20 10 0 6 9 10 20 10 11 0 20 -4
20 -10z m4932 -180 c-4 -37 -11 -48 -24 -34 -7 6 13 74 21 74 4 0 5 -18 3 -40z
m89 -7 c-12 -20 -14 -14 -5 12 4 9 9 14 11 11 3 -2 0 -13 -6 -23z m-5658 -46
c3 -20 2 -35 -2 -32 -13 7 -37 -75 -40 -135 -2 -61 10 -63 47 -9 19 27 29 33
50 31 38 -5 47 -17 35 -45 -9 -19 -21 -25 -56 -29 -24 -3 -59 -13 -77 -22 -34
-17 -65 -22 -42 -7 8 5 16 30 19 57 2 27 6 65 8 84 4 50 41 159 50 148 1 -2 5
-20 8 -41z m5639 -20 c-5 -7 -13 -33 -16 -59 -4 -26 -11 -50 -17 -53 -11 -8
-11 6 4 75 14 66 30 95 35 67 2 -10 -1 -23 -6 -30z m-7029 -12 c3 -16 0 -24
-7 -22 -14 4 -21 47 -8 47 5 0 12 -11 15 -25z m6507 5 c0 -5 -4 -10 -9 -10 -6
0 -13 5 -16 10 -3 6 1 10 9 10 9 0 16 -4 16 -10z m-5187 -25 c-4 -15 -36 -12
-41 3 -3 9 3 13 19 10 13 -1 23 -7 22 -13z m237 -29 c0 -19 -27 -39 -40 -31
-8 5 -6 13 7 25 22 23 33 25 33 6z m-833 -58 c-3 -8 -6 -5 -6 6 -1 11 2 17 5
13 3 -3 4 -12 1 -19z m3008 12 c3 -6 -4 -10 -17 -10 -18 0 -20 2 -8 10 19 12
18 12 25 0z m2935 -90 c-22 -76 -25 -64 -8 27 7 38 15 59 19 51 4 -7 -1 -43
-11 -78z m-6710 76 c0 -13 -29 -56 -33 -49 -7 12 11 53 23 53 5 0 10 -2 10 -4z
m6502 -28 c-7 -7 -12 -8 -12 -2 0 14 12 26 19 19 2 -3 -1 -11 -7 -17z m805 0
c-3 -8 -6 -5 -6 6 -1 11 2 17 5 13 3 -3 4 -12 1 -19z m-702 -63 c-4 -31 -9
-54 -12 -51 -3 2 -1 30 2 61 4 31 9 54 12 51 3 -2 1 -30 -2 -61z m691 9 c-4
-14 -9 -24 -12 -21 -3 2 -2 17 2 31 3 15 9 25 11 22 3 -3 2 -17 -1 -32z
m-6559 -41 c-14 -72 -46 -195 -52 -201 -9 -8 -1 35 26 140 10 43 19 80 19 83
0 3 3 5 6 5 4 0 4 -12 1 -27z m4082 -23 c-13 -16 -25 -28 -27 -25 -9 9 21 55
35 55 10 0 7 -9 -8 -30z m2276 -27 c-9 -15 -14 -20 -11 -10 4 11 9 31 13 45 5
19 8 22 11 10 2 -9 -4 -29 -13 -45z m169 -30 c-10 -43 -20 -69 -22 -59 -4 21
27 150 35 142 3 -2 -3 -40 -13 -83z m-263 45 c-23 -18 -41 -23 -41 -12 0 12
45 42 54 36 5 -3 -1 -13 -13 -24z m-369 -20 c-7 -7 -12 -8 -12 -2 0 14 12 26
19 19 2 -3 -1 -11 -7 -17z m-6237 3 c3 -5 1 -12 -5 -16 -5 -3 -10 1 -10 9 0
18 6 21 15 7z m3975 -16 c0 -8 -4 -15 -9 -15 -13 0 -22 16 -14 24 11 11 23 6
23 -9z m-3491 -84 c-6 -29 -13 -50 -16 -47 -3 3 0 28 7 56 7 28 14 49 16 47 3
-2 -1 -28 -7 -56z m2543 9 c7 -16 16 -30 19 -30 6 0 31 -77 43 -132 12 -56
-11 -26 -46 60 -20 48 -39 97 -43 110 -9 33 11 27 27 -8z m-3872 -41 c-43 -36
-77 -55 -85 -47 -6 6 119 96 125 91 3 -3 -15 -22 -40 -44z m687 29 c-3 -8 -6
-5 -6 6 -1 11 2 17 5 13 3 -3 4 -12 1 -19z m-472 -8 c-4 -6 -11 -8 -16 -5 -5
4 -9 2 -9 -2 0 -5 -9 -14 -20 -21 -26 -16 -25 -8 2 18 22 21 54 28 43 10z
m1045 -80 c0 -24 -26 -38 -42 -22 -8 8 -8 15 2 27 18 21 40 19 40 -5z m6176
-41 c-18 -41 -21 -26 -4 22 6 18 13 29 15 23 2 -6 -3 -26 -11 -45z m-246 31
c0 -5 -2 -10 -4 -10 -3 0 -8 5 -11 10 -3 6 -1 10 4 10 6 0 11 -4 11 -10z m337
-12 c-3 -8 -6 -5 -6 6 -1 11 2 17 5 13 3 -3 4 -12 1 -19z m-6570 -10 c-3 -8
-6 -5 -6 6 -1 11 2 17 5 13 3 -3 4 -12 1 -19z m83 8 c0 -7 -6 -19 -14 -25 -11
-9 -12 -6 -8 14 5 26 22 35 22 11z m6477 -38 c-3 -8 -6 -5 -6 6 -1 11 2 17 5
13 3 -3 4 -12 1 -19z m224 -39 c-5 -13 -10 -19 -10 -12 -1 15 10 45 15 40 3
-2 0 -15 -5 -28z m-220 -36 c-2 -29 0 -35 13 -30 20 8 20 -2 0 -31 -8 -12 -23
-22 -33 -22 -17 0 -18 3 -5 38 7 20 13 50 14 66 0 16 3 26 7 22 4 -4 6 -23 4
-43z m-3571 21 c0 -8 -4 -12 -10 -9 -5 3 -10 10 -10 16 0 5 5 9 10 9 6 0 10
-7 10 -16z m-3385 -19 c0 -13 -8 -21 -22 -23 -17 -3 -23 2 -23 16 0 10 3 22 7
26 13 13 38 1 38 -19z m-870 -15 c-3 -5 -12 -10 -18 -10 -7 0 -6 4 3 10 19 12
23 12 15 0z m627 -12 c15 -12 12 -18 -26 -53 l-42 -40 4 33 c2 17 8 32 14 32
5 0 6 5 2 11 -3 6 0 15 7 20 18 12 22 11 41 -3z m7548 -17 c0 -5 -15 -45 -34
-88 -19 -44 -40 -106 -46 -139 -13 -57 -30 -94 -30 -64 0 56 47 218 81 282 10
19 29 25 29 9z m-3848 -56 c25 -25 54 -45 64 -45 35 0 84 -38 84 -64 0 -14 -4
-28 -10 -31 -15 -9 -12 -43 7 -71 13 -21 14 -30 5 -45 -7 -10 -12 -27 -12 -38
0 -49 -20 -63 -150 -105 -53 -17 -70 -26 -58 -31 10 -4 23 -5 30 -2 7 2 24 -4
37 -14 29 -23 86 -25 95 -4 4 12 -3 15 -29 15 -44 0 -47 23 -6 40 44 18 75 10
79 -20 2 -14 12 -44 23 -67 10 -24 19 -45 19 -48 0 -3 -20 6 -43 20 -24 14
-57 25 -73 25 -16 0 -56 7 -89 14 -51 12 -67 22 -107 66 -47 50 -60 88 -40
116 8 12 43 28 55 26 4 -1 7 3 7 9 0 5 6 7 13 3 10 -6 10 -4 0 7 -7 7 -13 20
-13 29 0 9 -18 53 -40 99 -53 108 -52 127 2 141 22 7 57 9 76 5 23 -4 32 -3
27 4 -13 21 2 10 47 -34z m3718 -44 c0 -6 -5 -13 -10 -16 -15 -9 -43 3 -35 15
8 13 45 13 45 1z m-32 -73 c-2 -6 -13 -17 -24 -24 -23 -16 -50 -3 -41 20 7 19
71 23 65 4z m-6662 -37 c-3 -5 -15 -7 -26 -4 -28 7 -25 13 6 13 14 0 23 -4 20
-9z m2204 -26 c0 -18 -5 -25 -20 -25 -22 0 -26 20 -8 38 19 19 28 14 28 -13z
m4257 -17 c-3 -8 -6 -5 -6 6 -1 11 2 17 5 13 3 -3 4 -12 1 -19z m113 -22 c0
-2 -7 -9 -15 -16 -13 -11 -14 -10 -9 4 5 14 24 23 24 12z m-3734 -33 c-10 -10
-19 5 -10 18 6 11 8 11 12 0 2 -7 1 -15 -2 -18z m679 -13 c3 -5 -5 -12 -19
-16 -38 -9 -47 -54 -10 -54 8 0 14 9 14 20 0 22 0 22 59 -15 25 -16 25 -37 -1
-33 -19 2 -24 -2 -26 -24 -3 -21 1 -28 13 -28 12 0 15 -5 11 -17 -4 -10 -4
-14 0 -11 4 4 15 3 25 -3 14 -7 19 -21 19 -48 0 -39 -25 -101 -40 -101 -14 0
-40 42 -40 65 0 15 -2 17 -9 7 -6 -10 -11 -6 -19 17 -6 17 -15 31 -20 31 -17
0 1 53 19 57 11 3 19 13 19 22 0 11 -3 12 -8 4 -4 -7 -17 -10 -30 -6 -12 3
-20 9 -17 13 6 9 -25 23 -33 15 -3 -3 0 -5 6 -5 7 0 12 -9 12 -19 0 -11 5 -23
10 -26 13 -8 13 -25 1 -25 -5 0 -16 7 -25 15 -8 9 -22 12 -33 9 -17 -6 -17 -6
1 8 16 13 17 17 5 36 -8 12 -24 22 -36 22 -19 0 -21 5 -21 44 0 41 2 45 26 49
55 8 141 7 147 -3z m239 -48 c3 -5 7 -20 10 -35 2 -15 8 -32 12 -39 4 -7 9
-26 11 -42 3 -28 2 -29 -11 -11 -8 11 -12 23 -10 27 3 5 0 8 -6 8 -7 0 -9 -8
-4 -22 4 -13 8 -37 10 -55 1 -18 5 -36 8 -42 4 -5 2 -12 -3 -15 -9 -6 -21 39
-21 77 0 11 -11 35 -25 53 -15 19 -20 34 -14 36 7 2 13 15 14 28 1 14 3 28 4
33 1 10 19 9 25 -1z m-1604 -52 c11 0 20 -4 20 -10 0 -5 -13 -10 -30 -10 -27
0 -30 -3 -30 -30 0 -16 -4 -30 -10 -30 -5 0 -10 14 -10 30 0 22 -5 30 -17 30
-17 1 -17 1 0 11 9 5 17 18 17 28 0 30 13 33 27 6 8 -14 22 -25 33 -25z m-610
0 c0 -15 -7 -20 -25 -20 -18 0 -25 5 -25 20 0 15 7 20 25 20 18 0 25 -5 25
-20z m1740 -5 c0 -2 -7 -5 -15 -9 -9 -3 -15 0 -15 9 0 9 6 12 15 9 8 -4 15 -7
15 -9z m3580 0 c0 -8 -4 -15 -10 -15 -5 0 -7 7 -4 15 4 8 8 15 10 15 2 0 4 -7
4 -15z m597 -36 c-7 -56 -27 -75 -27 -27 0 43 8 68 22 68 7 0 8 -16 5 -41z
m-4089 11 c-7 -11 -16 -20 -20 -20 -5 0 -8 -9 -8 -20 0 -13 7 -20 20 -20 27 0
25 -15 -2 -17 -13 -1 -24 -7 -26 -13 -2 -5 -8 -10 -12 -10 -5 0 -4 14 2 31 6
16 8 33 4 36 -3 4 -6 -1 -6 -11 0 -9 -4 -14 -10 -11 -5 3 -10 -2 -10 -11 0
-10 -2 -15 -5 -12 -13 13 8 57 28 60 15 2 21 9 19 21 -2 11 4 17 18 17 18 0
19 -2 8 -20z m-6068 -27 c-11 -17 -11 -17 -6 0 3 10 6 24 7 30 0 9 2 9 5 0 3
-7 0 -20 -6 -30z m-13 -45 c-3 -8 -6 -5 -6 6 -1 11 2 17 5 13 3 -3 4 -12 1
-19z m9493 4 c0 -18 -26 -32 -57 -32 -36 0 -43 13 -15 29 20 12 72 14 72 3z
m-5260 -34 c0 -17 -12 -32 -27 -35 -16 -4 -16 2 -1 27 14 23 28 26 28 8z
m4403 -42 c4 -10 0 -12 -14 -9 -22 6 -26 23 -5 23 8 0 16 -6 19 -14z m-5255
-47 c3 -27 -18 -41 -45 -32 -17 6 -17 35 -1 51 19 19 43 9 46 -19z m5037 0 c6
-1 18 2 28 6 15 6 17 1 17 -34 0 -23 -4 -41 -10 -41 -5 0 -26 11 -46 25 -20
14 -47 25 -60 25 -15 0 -24 6 -24 16 0 13 8 15 43 10 23 -3 47 -6 52 -7z
m1015 -30 c0 -11 -4 -18 -10 -14 -5 3 -7 12 -3 20 7 21 13 19 13 -6z m-905
-11 c-4 -13 -9 -31 -11 -40 -3 -10 -10 -18 -15 -18 -6 0 -8 10 -4 23 4 12 9
30 11 40 3 9 10 17 15 17 6 0 8 -10 4 -22z m-506 -47 c-7 -23 -16 -41 -22 -41
-5 0 -6 8 -2 18 4 9 12 30 17 45 16 42 21 25 7 -22z m1972 18 c3 -14 -1 -37
-10 -54 l-15 -30 -7 49 c-5 28 -5 54 -3 58 10 15 28 3 35 -23z m-5861 17 c0
-18 -15 -36 -31 -36 -12 0 -19 7 -19 20 0 15 7 20 25 20 14 0 25 -2 25 -4z
m-80 -10 c0 -3 -4 -8 -10 -11 -5 -3 -10 -1 -10 4 0 6 5 11 10 11 6 0 10 -2 10
-4z m-805 -26 c-3 -5 -10 -10 -16 -10 -5 0 -9 5 -9 10 0 6 7 10 16 10 8 0 12
-4 9 -10z m6175 -42 c0 -5 -7 -8 -15 -8 -17 0 -18 2 -9 25 5 13 8 14 15 3 5
-7 9 -16 9 -20z m-990 -42 c5 -5 19 -9 32 -10 17 -1 24 -8 26 -28 4 -34 -1
-35 -42 -3 -18 14 -35 23 -37 20 -3 -2 -10 5 -17 16 -10 16 -10 20 3 25 8 4
16 14 16 23 1 9 4 5 6 -9 3 -14 9 -29 13 -34z m-4230 15 c5 -11 10 -31 10 -45
0 -16 6 -26 15 -26 16 0 19 -9 7 -27 -5 -8 -26 -9 -70 -4 -88 10 -105 40 -53
92 34 34 75 38 91 10z m-3793 -53 c-3 -8 -6 -5 -6 6 -1 11 2 17 5 13 3 -3 4
-12 1 -19z m7638 -48 c-4 -17 -9 -29 -12 -26 -3 2 -2 19 2 36 4 17 9 29 12 26
3 -2 2 -19 -2 -36z m1315 -10 c0 -5 -4 -10 -10 -10 -5 0 -10 5 -10 10 0 6 5
10 10 10 6 0 10 -4 10 -10z m-3183 -22 c-3 -8 -6 -5 -6 6 -1 11 2 17 5 13 3
-3 4 -12 1 -19z m-5800 -20 c-3 -8 -6 -5 -6 6 -1 11 2 17 5 13 3 -3 4 -12 1
-19z m8463 -19 c0 -11 -4 -17 -10 -14 -5 3 -10 13 -10 21 0 8 5 14 10 14 6 0
10 -9 10 -21z m-3400 -19 c0 -22 -5 -30 -18 -30 -27 0 -32 9 -20 36 16 34 38
31 38 -6z m682 -15 c0 -5 -5 -11 -11 -13 -6 -2 -11 4 -11 13 0 9 5 15 11 13 6
-2 11 -8 11 -13z m-2477 -25 c-3 -5 -11 -10 -16 -10 -6 0 -7 5 -4 10 3 6 11
10 16 10 6 0 7 -4 4 -10z m1555 -50 c0 -5 -4 -10 -10 -10 -5 0 -10 5 -10 10 0
6 5 10 10 10 6 0 10 -4 10 -10z m-327 -47 c21 8 32 -10 17 -28 -7 -8 -9 -26
-6 -39 7 -30 -9 -43 -30 -25 -13 11 -18 10 -25 -4 -14 -25 -29 -21 -29 8 0 15
-6 25 -14 25 -7 0 -19 7 -26 15 -10 12 -8 17 13 26 14 6 30 23 37 37 l12 26
18 -23 c11 -15 23 -22 33 -18z m277 17 c0 -5 -7 -10 -15 -10 -8 0 -15 5 -15
10 0 6 7 10 15 10 8 0 15 -4 15 -10z m-132 -31 c3 -29 -18 -44 -49 -34 -37 12
-19 68 20 63 20 -2 27 -9 29 -29z m362 -90 c0 -23 -11 -29 -37 -23 -23 6 -38
41 -20 47 24 8 57 -6 57 -24z m3195 -38 c-8 -8 -45 32 -45 48 1 11 8 7 25 -14
13 -16 22 -31 20 -34z m-3520 -31 c-3 -5 -10 -10 -16 -10 -5 0 -9 5 -9 10 0 6
7 10 16 10 8 0 12 -4 9 -10z m4305 -22 c0 -2 -8 -25 -19 -53 -19 -50 -50 -80
-36 -34 16 52 34 89 44 89 6 0 11 -1 11 -2z m-6462 -151 c-4 -28 -46 -30 -62
-4 -9 15 -7 21 8 32 25 19 58 2 54 -28z m5728 15 c24 -19 49 -62 36 -62 -13 0
-38 23 -57 53 -20 31 -10 35 21 9z m-3520 -19 c-10 -10 -19 5 -10 18 6 11 8
11 12 0 2 -7 1 -15 -2 -18z m174 -58 c0 -7 -7 -15 -15 -19 -15 -5 -22 24 -9
37 9 9 24 -2 24 -18z m-1650 -117 c0 -30 -25 -39 -48 -16 -16 16 -15 65 1 71
20 7 47 -24 47 -55z m560 31 c0 -5 -7 -9 -15 -9 -15 0 -20 12 -9 23 8 8 24 -1
24 -14z m720 -19 c-9 -17 -30 -28 -30 -16 0 16 15 36 26 36 12 0 12 -4 4 -20z
m-2372 -38 c2 -14 -2 -22 -11 -22 -19 0 -40 26 -32 40 11 18 40 6 43 -18z
m2685 3 c-7 -19 -33 -20 -33 -1 0 15 20 26 32 19 4 -2 5 -10 1 -18z m3637 -5
c0 -11 -4 -20 -10 -20 -5 0 -10 9 -10 20 0 11 5 20 10 20 6 0 10 -9 10 -20z
m-7146 -65 c-11 -28 -20 -15 -16 22 4 33 6 35 13 15 5 -12 6 -29 3 -37z m2464
-8 c3 -55 20 -82 65 -101 19 -8 -23 -36 -55 -36 -20 0 -31 -8 -42 -29 -23 -44
-56 -50 -56 -10 0 12 -5 16 -15 13 -11 -5 -15 1 -15 20 0 21 -9 30 -45 48 -55
27 -58 43 -7 33 20 -4 41 -7 46 -8 5 -1 30 28 55 65 25 37 51 66 56 65 6 -2
11 -29 13 -60z m622 49 c0 -25 -12 -46 -26 -46 -17 0 -18 14 -4 41 12 22 30
25 30 5z m348 -56 c3 -32 0 -37 -30 -48 -29 -10 -34 -9 -55 10 -44 41 -22 81
42 76 38 -3 40 -5 43 -38z m62 -12 c0 -16 -4 -28 -9 -28 -5 0 -16 -3 -25 -6
-20 -8 -20 7 -1 54 13 29 18 34 25 22 5 -8 10 -27 10 -42z m1585 12 c-3 -5
-10 -10 -16 -10 -5 0 -9 5 -9 10 0 6 7 10 16 10 8 0 12 -4 9 -10z m-6020 -47
c-4 -10 -10 -28 -12 -40 -7 -29 -33 -30 -33 -2 0 29 18 59 36 59 12 0 14 -5 9
-17z m5099 2 c-4 -8 -8 -15 -10 -15 -2 0 -4 7 -4 15 0 8 4 15 10 15 5 0 7 -7
4 -15z m-574 -21 c0 -24 -19 -54 -35 -54 -19 0 -19 15 1 45 19 28 34 32 34 9z
m-4648 -81 c-6 -10 -20 -55 -32 -101 -23 -85 -45 -124 -28 -50 5 24 8 56 8 73
-4 59 0 74 28 106 25 31 27 32 30 12 2 -12 -1 -30 -6 -40z m4258 27 c0 -14
-46 -60 -59 -60 -6 0 -22 -22 -36 -49 -27 -55 -57 -81 -92 -81 -32 0 -29 22 6
42 17 9 39 34 50 56 12 23 40 52 67 71 50 33 64 37 64 21z m160 -7 c0 -5 -5
-15 -10 -23 -8 -12 -10 -11 -10 8 0 12 5 22 10 22 6 0 10 -3 10 -7z m2820 -44
c-12 -22 -30 -25 -30 -6 0 17 21 38 32 31 4 -3 3 -14 -2 -25z m-5690 -49 c0
-33 -4 -60 -10 -60 -11 0 -14 103 -3 113 12 12 13 8 13 -53z m717 54 c-3 -3
-12 -4 -19 -1 -8 3 -5 6 6 6 11 1 17 -2 13 -5z m2053 -23 c0 -23 -16 -36 -25
-21 -9 14 1 40 15 40 5 0 10 -9 10 -19z m1202 -13 c2 -23 10 -36 26 -43 28
-12 28 -23 0 -27 -14 -2 -25 -14 -32 -35 -6 -17 -15 -35 -19 -39 -12 -12 -27
17 -27 53 0 27 -4 32 -30 38 -34 8 -31 25 5 25 16 0 30 10 42 30 22 38 31 38
35 -2z m1795 -10 c-3 -8 -6 -5 -6 6 -1 11 2 17 5 13 3 -3 4 -12 1 -19z m-3317
-28 c0 -13 -7 -20 -19 -20 -27 0 -35 17 -14 29 26 15 33 13 33 -9z m260 6 c0
-14 -34 -28 -44 -18 -9 8 14 32 30 32 8 0 14 -6 14 -14z m-2674 -42 c-4 -14
-9 -24 -12 -21 -3 2 -2 17 2 31 3 15 9 25 11 22 3 -3 2 -17 -1 -32z m1494 -14
c0 -5 -4 -10 -10 -10 -5 0 -10 5 -10 10 0 6 5 10 10 10 6 0 10 -4 10 -10z
m4224 -21 c-3 -5 -10 -7 -15 -3 -5 3 -7 10 -3 15 3 5 10 7 15 3 5 -3 7 -10 3
-15z m-2996 -11 c-3 -7 -20 -17 -39 -22 -19 -6 -40 -18 -47 -28 -17 -24 -32
-23 -32 3 0 11 4 18 9 14 5 -3 13 -1 16 5 7 12 63 38 83 39 8 1 12 -5 10 -11z
m-1188 -43 c-21 -25 -31 -6 -12 23 14 21 17 23 20 9 2 -10 -2 -24 -8 -32z
m3715 25 c-10 -11 -23 -20 -29 -20 -6 0 0 9 14 20 32 25 38 25 15 0z m-2721
-41 c7 -34 -14 -54 -49 -45 -30 8 -32 21 -5 36 11 6 20 19 20 29 0 44 21 32
34 -20z m314 20 c-2 -6 -8 -10 -13 -10 -5 0 -11 4 -13 10 -2 6 4 11 13 11 9 0
15 -5 13 -11z m-3261 -21 c-3 -8 -6 -5 -6 6 -1 11 2 17 5 13 3 -3 4 -12 1 -19z
m2579 -27 c-9 -13 -43 -15 -51 -2 -3 5 2 17 11 26 15 14 19 15 32 2 8 -8 11
-20 8 -26z m1116 -27 c96 -16 137 -31 58 -20 -25 3 -114 9 -197 12 -84 4 -150
11 -147 15 9 15 187 10 286 -7z m-647 -4 c-3 -5 -17 -10 -31 -10 -13 0 -24 5
-24 10 0 6 14 10 31 10 17 0 28 -4 24 -10z m853 -22 c-6 -18 -13 -27 -15 -21
-4 11 13 53 22 53 2 0 -1 -15 -7 -32z m-3138 -28 c-20 -13 -43 -13 -35 0 3 6
16 10 28 10 18 0 19 -2 7 -10z m-206 -19 c3 -5 -1 -11 -9 -15 -15 -6 -29 7
-18 18 9 9 21 8 27 -3z m2944 -8 c-3 -17 -54 -40 -65 -29 -4 3 2 15 12 26 22
25 58 27 53 3z m-4218 -3 c0 -5 -5 -10 -11 -10 -5 0 -7 5 -4 10 3 6 8 10 11
10 2 0 4 -4 4 -10z m3494 -12 c-8 -28 -3 -26 -47 -20 l-37 4 32 19 c46 25 61
24 52 -3z m1092 -23 c-6 -16 -56 -21 -56 -5 0 13 54 40 58 29 2 -5 1 -16 -2
-24z m1614 14 c0 -5 -12 -9 -27 -9 -26 0 -26 1 -8 14 20 14 35 12 35 -5z
m-6340 -81 c-8 -38 -8 -54 1 -62 8 -8 13 -7 16 2 8 21 23 13 23 -13 0 -16 -6
-25 -15 -25 -8 0 -15 -7 -15 -16 0 -13 3 -14 14 -5 10 8 16 9 21 1 9 -15 -2
-44 -25 -65 -19 -18 -20 -17 -20 10 0 22 -3 25 -14 16 -7 -6 -16 -26 -20 -43
-4 -21 -10 -28 -16 -22 -11 11 -4 53 31 197 10 43 20 88 20 100 l2 22 4 -23
c3 -12 0 -46 -7 -74z m73 52 c-3 -10 -11 -25 -19 -31 -17 -14 -18 -8 -2 26 13
30 28 34 21 5z m97 -10 c0 -20 -5 -30 -15 -30 -15 0 -21 40 -8 53 14 15 23 6
23 -23z m1615 4 c-22 -8 -49 -13 -60 -11 -13 2 -3 7 25 14 64 16 82 14 35 -3z
m1485 -4 c0 -5 -12 -10 -26 -10 -14 0 -23 4 -19 10 3 6 15 10 26 10 10 0 19
-4 19 -10z m1210 -10 c0 -5 -5 -10 -11 -10 -5 0 -7 5 -4 10 3 6 8 10 11 10 2
0 4 -4 4 -10z m317 -17 c-8 -41 11 -74 39 -67 27 7 74 -36 74 -67 0 -11 6 -19
14 -19 20 0 28 -14 20 -35 -5 -13 -9 -14 -15 -4 -4 8 -11 11 -14 7 -4 -3 3
-15 15 -26 22 -20 22 -20 2 -31 -26 -14 -55 -14 -69 0 -8 8 -16 6 -29 -10 -13
-14 -21 -17 -30 -10 -9 7 -19 7 -33 0 -27 -15 -31 -14 -31 7 0 13 -7 9 -28
-16 -31 -37 -42 -40 -42 -12 0 13 -6 19 -17 17 -32 -5 -45 -19 -40 -43 2 -13
-1 -28 -7 -33 -8 -7 -12 11 -14 62 -3 77 -9 110 -20 103 -13 -8 -87 51 -83 65
2 8 3 33 3 57 l0 42 78 0 c53 0 80 4 83 13 3 7 6 5 6 -5 1 -25 15 -22 34 5
l16 22 0 -27 c1 -34 28 -38 33 -5 2 15 9 21 21 19 9 -2 17 2 17 8 0 5 5 10 11
10 7 0 9 -11 6 -27z m-2092 -13 c10 -16 -15 -40 -41 -40 -27 0 -28 3 -14 31
11 20 45 26 55 9z m343 -12 c-2 -7 12 -15 32 -18 28 -4 34 -9 32 -25 -2 -11
-8 -25 -13 -31 -10 -13 -152 -39 -166 -31 -4 3 -33 -2 -63 -10 -83 -23 -149
-35 -173 -31 -14 2 4 11 46 22 40 12 67 24 67 32 0 17 5 17 29 4 14 -7 26 -1
59 30 22 22 53 42 69 45 15 3 35 10 43 15 22 13 40 12 38 -2z m-748 -27 c0 -6
-5 -13 -10 -16 -15 -9 -43 3 -35 15 8 13 45 13 45 1z m204 -10 c3 -4 -2 -15
-12 -23 -24 -20 -131 -53 -140 -43 -4 4 -2 10 3 12 6 2 35 16 65 32 61 31 76
35 84 22z m1536 0 c0 -15 -28 -33 -40 -26 -8 5 -8 11 1 21 13 15 39 19 39 5z
m-2810 -8 c0 -14 -34 -43 -52 -43 -23 0 -24 26 0 39 19 12 52 14 52 4z m3180
-7 c0 -18 -30 -30 -43 -17 -9 9 11 23 41 30 1 1 2 -5 2 -13z m-2374 -7 c9 -15
-14 -29 -48 -29 -20 0 -26 4 -22 14 9 23 58 33 70 15z m1159 1 c-3 -5 -21 -10
-38 -10 -24 0 -28 3 -17 10 20 13 63 13 55 0z m754 1 c9 -6 10 -10 2 -16 -16
-9 -44 2 -36 15 8 12 16 12 34 1z m-2199 -45 c0 -3 -4 -8 -10 -11 -5 -3 -10
-1 -10 4 0 6 5 11 10 11 6 0 10 -2 10 -4z m1473 -15 c17 -17 -11 -39 -58 -46
-79 -12 -114 18 -57 50 29 16 97 14 115 -4z m-558 -1 c-3 -5 -11 -10 -16 -10
-6 0 -7 5 -4 10 3 6 11 10 16 10 6 0 7 -4 4 -10z m-1310 -10 c-3 -5 -10 -10
-16 -10 -5 0 -9 5 -9 10 0 6 7 10 16 10 8 0 12 -4 9 -10z m235 1 c0 -15 -52
-48 -87 -56 -57 -12 -35 33 24 51 49 15 63 16 63 5z m-310 -9 c0 -13 -12 -22
-22 -16 -10 6 -1 24 13 24 5 0 9 -4 9 -8z m778 -24 c-3 -31 -6 -33 -45 -36
-40 -3 -43 -1 -43 22 0 20 6 27 28 32 15 3 32 7 37 9 23 8 26 4 23 -27z m-343
2 c-20 -22 -35 -26 -35 -10 0 6 10 15 23 20 32 13 32 12 12 -10z m-795 3 c0
-14 -34 -43 -52 -43 -28 0 -21 27 10 38 34 13 42 14 42 5z m1737 1 c-3 -3 -12
-4 -19 -1 -8 3 -5 6 6 6 11 1 17 -2 13 -5z m-41 -13 c-8 -12 -46 -21 -46 -11
0 9 18 18 38 19 7 1 11 -3 8 -8z m-161 -21 c-3 -5 -18 -10 -33 -9 -24 0 -25 1
-7 9 28 12 47 12 40 0z m1835 -5 c-14 -16 -50 -21 -50 -6 0 11 18 19 44 20 15
1 16 -2 6 -14z m-1930 -16 c0 -5 -6 -9 -14 -9 -8 0 -17 -6 -19 -12 -3 -7 -6
-4 -6 8 -1 11 2 23 5 27 8 8 34 -3 34 -14z m-880 1 c0 -5 -7 -10 -16 -10 -8 0
-12 5 -9 10 3 6 10 10 16 10 5 0 9 -4 9 -10z m1335 -10 c-3 -5 -11 -10 -16
-10 -6 0 -7 5 -4 10 3 6 11 10 16 10 6 0 7 -4 4 -10z m875 -29 c0 -12 -25 -21
-58 -21 -31 0 -19 16 18 23 14 2 28 5 33 6 4 0 7 -3 7 -8z m-3754 -47 c-4 -20
-10 -34 -12 -31 -3 3 -2 21 2 41 3 21 9 35 11 32 3 -3 2 -21 -1 -42z m1940 4
c-23 -13 -40 0 -25 18 9 11 15 12 26 2 12 -10 12 -13 -1 -20z m-156 -28 c0 -5
-5 -10 -11 -10 -5 0 -7 5 -4 10 3 6 8 10 11 10 2 0 4 -4 4 -10z m1237 -14 c-6
-17 -47 -20 -47 -3 0 9 6 17 13 20 18 6 38 -4 34 -17z m1720 -18 c-3 -7 -5 -2
-5 12 0 14 2 19 5 13 2 -7 2 -19 0 -25z m-2754 5 c12 -11 -25 -43 -48 -43 -34
0 -39 27 -7 39 33 12 47 13 55 4z m132 -13 c0 -9 -11 -16 -27 -18 -16 -2 -30
-11 -33 -23 -7 -21 -30 -26 -41 -8 -6 10 -23 8 -71 -7 -10 -3 -7 1 7 10 14 8
35 15 48 16 28 0 64 18 75 37 11 18 42 13 42 -7z m-1974 -21 c-9 -22 -10 -22
-10 -3 -1 11 2 24 6 27 12 12 14 0 4 -24z m1006 15 c-3 -3 -12 -4 -19 -1 -8 3
-5 6 6 6 11 1 17 -2 13 -5z m3131 -9 c59 -18 73 -33 47 -51 -42 -31 -204 -24
-252 11 -55 41 101 71 205 40z m-1641 -11 c-3 -3 -12 -4 -19 -1 -8 3 -5 6 6 6
11 1 17 -2 13 -5z m-1067 -18 c0 -2 -7 -7 -16 -10 -8 -3 -12 -2 -9 4 6 10 25
14 25 6z m-85 -15 c-15 -15 -129 -41 -171 -40 -28 0 -12 6 55 19 51 11 96 22
99 25 3 3 10 5 16 5 6 0 6 -3 1 -9z m406 -28 c-10 -17 -10 -16 -11 3 0 23 13
41 18 25 2 -6 -1 -18 -7 -28z m1944 7 c-19 -21 -45 -27 -45 -10 0 10 52 41 59
34 2 -2 -4 -13 -14 -24z m1025 6 c0 -3 -4 -8 -10 -11 -5 -3 -10 -1 -10 4 0 6
5 11 10 11 6 0 10 -2 10 -4z m-746 -50 c57 -14 74 -36 28 -36 -38 0 -122 35
-122 51 0 7 8 9 23 4 12 -4 44 -12 71 -19z m-3008 -32 c-3 -8 -17 -14 -31 -14
-14 0 -42 -7 -62 -15 -20 -8 -38 -13 -41 -10 -11 11 34 34 65 35 22 0 38 8 50
24 13 18 19 20 21 10 2 -9 1 -22 -2 -30z m104 37 c0 -16 -22 -25 -60 -27 l-35
-1 40 18 c47 21 55 22 55 10z m340 -1 c0 -5 -9 -10 -20 -10 -11 0 -20 -4 -20
-10 0 -5 8 -10 17 -10 15 0 14 -2 -3 -15 -10 -8 -23 -14 -29 -15 -5 0 -4 4 4
9 12 8 12 12 2 24 -11 14 -3 20 47 36 1 1 2 -3 2 -9z m-97 -20 c-6 -24 -23
-37 -23 -18 0 12 18 38 26 38 1 0 0 -9 -3 -20z m3212 10 c-3 -5 -10 -10 -16
-10 -5 0 -9 5 -9 10 0 6 7 10 16 10 8 0 12 -4 9 -10z m-3270 -9 c-11 -5 -36
-11 -55 -15 -35 -7 -35 -7 -10 8 14 9 39 15 55 15 25 0 27 -2 10 -8z m803 2
c-10 -2 -26 -2 -35 0 -10 3 -2 5 17 5 19 0 27 -2 18 -5z m-314 -18 c-6 -16
-24 -21 -24 -7 0 11 11 22 21 22 5 0 6 -7 3 -15z m131 5 c-3 -5 -13 -10 -21
-10 -8 0 -14 5 -14 10 0 6 9 10 21 10 11 0 17 -4 14 -10z m105 0 c-20 -13 -43
-13 -35 0 3 6 16 10 28 10 18 0 19 -2 7 -10z m978 -21 c7 -12 11 -23 8 -26
-10 -11 -122 -32 -138 -27 -40 12 -13 45 51 65 44 13 66 10 79 -12z m-1927
-40 c-18 -30 -21 -31 -21 -11 0 29 22 64 33 53 5 -5 -1 -24 -12 -42z m-726 31
c-3 -5 -10 -10 -16 -10 -5 0 -9 5 -9 10 0 6 7 10 16 10 8 0 12 -4 9 -10z
m1212 4 c-3 -3 -12 -4 -19 -1 -8 3 -5 6 6 6 11 1 17 -2 13 -5z m-557 -24 c0
-5 -9 -19 -21 -31 -20 -20 -19 -34 4 -34 5 0 12 -6 15 -13 3 -10 -4 -13 -24
-10 -23 2 -29 8 -30 28 -2 40 13 70 36 70 11 0 20 -4 20 -10z m-845 -9 c-15
-13 -65 -23 -65 -12 0 5 12 12 28 14 15 2 31 5 37 6 6 0 6 -2 0 -8z m1095 0
c0 -14 -10 -18 -60 -25 -38 -5 -41 -4 -20 5 14 6 32 15 40 19 20 12 40 12 40
1z m530 -1 c0 -5 -4 -10 -10 -10 -5 0 -10 -6 -10 -14 0 -8 -4 -18 -10 -21 -5
-3 -8 1 -5 9 3 9 7 23 10 31 5 17 25 21 25 5z m194 0 c-12 -5 -25 -13 -28 -19
-4 -6 -14 -7 -22 -4 -14 5 -12 8 7 19 13 7 33 13 44 13 19 0 19 -1 -1 -9z
m683 4 c-3 -3 -12 -4 -19 -1 -8 3 -5 6 6 6 11 1 17 -2 13 -5z m-2662 -46 c-2
-27 -25 -37 -25 -10 0 19 8 32 20 32 4 0 6 -10 5 -22z m-185 8 c0 -3 -4 -8
-10 -11 -5 -3 -10 -1 -10 4 0 6 5 11 10 11 6 0 10 -2 10 -4z m1503 -11 c-3 -9
-8 -14 -10 -11 -3 3 -2 9 2 15 9 16 15 13 8 -4z m1454 -10 c-4 -8 -11 -15 -17
-15 -7 0 -7 6 0 21 13 23 26 19 17 -6z m-2264 0 c1 -6 -16 -12 -38 -15 -22 -3
-45 -9 -52 -13 -6 -4 -14 -3 -17 2 -7 11 17 21 49 21 13 0 27 5 30 11 8 12 26
8 28 -6z m539 -17 c-6 -6 -15 -8 -19 -4 -4 4 -1 11 7 16 19 12 27 3 12 -12z
m453 3 c-3 -6 -11 -11 -16 -11 -5 0 -4 6 3 14 14 16 24 13 13 -3z m-1695 -4
c0 -7 -5 -18 -11 -24 -17 -17 -1 -53 24 -54 19 0 17 -3 -10 -16 -39 -19 -42
-30 -10 -36 19 -4 19 -4 -5 -6 -35 -1 -38 6 -27 54 5 22 11 52 14 68 5 27 25
38 25 14z m1614 -44 c-1 -26 -7 -49 -12 -51 -7 -2 -9 10 -6 35 11 76 21 85 18
16z m341 38 c-15 -14 -75 -24 -75 -12 0 8 21 14 70 20 8 0 10 -2 5 -8z m-1769
-39 c-20 -21 -39 -7 -25 19 8 17 13 18 25 8 13 -11 13 -14 0 -27z m2642 26
c-2 -6 -10 -14 -16 -16 -7 -2 -10 2 -6 12 7 18 28 22 22 4z m-2118 -12 c-14
-7 -29 -11 -34 -8 -12 6 15 22 39 22 17 0 17 -2 -5 -14z m-205 -6 c4 -6 -6
-10 -22 -9 -25 0 -26 1 -8 9 11 5 21 9 22 9 1 1 5 -3 8 -9z m575 -6 c0 -9 -42
-24 -52 -18 -15 10 19 34 38 27 8 -3 14 -7 14 -9z m1020 5 c0 -6 -9 -23 -21
-37 -12 -15 -20 -20 -19 -12 4 27 0 45 -8 35 -9 -13 -92 -35 -92 -24 0 4 28
16 63 27 76 24 77 25 77 11z m-1455 -8 c-13 -11 -77 -32 -82 -27 -2 2 15 11
39 19 53 19 54 19 43 8z m-215 -11 c-20 -13 -43 -13 -35 0 3 6 16 10 28 10 18
0 19 -2 7 -10z m2521 -22 c-15 -5 -22 -19 -27 -58 -4 -34 -13 -54 -25 -60 -30
-17 -32 7 -6 55 14 24 22 46 19 49 -14 15 -77 5 -99 -15 -20 -20 -23 -20 -29
-5 -11 29 12 42 70 40 38 -1 57 3 60 12 4 11 10 12 31 2 25 -11 26 -12 6 -20z
m-1463 -11 c-12 -4 -27 -6 -35 -3 -7 3 -15 1 -18 -4 -7 -12 -82 -12 -145 -1
-51 10 -41 11 82 14 60 1 89 6 93 15 4 10 8 10 25 0 20 -13 20 -13 -2 -21z
m192 6 c1 -26 2 -27 15 -9 19 25 36 12 22 -18 -8 -17 -19 -24 -37 -23 -21 2
-25 -2 -25 -28 0 -25 3 -30 23 -27 30 4 28 -16 -3 -24 -30 -7 -34 -34 -4 -34
12 0 17 -4 14 -11 -4 -6 -13 -8 -21 -5 -8 3 -14 1 -14 -5 0 -7 14 -8 39 -4 22
4 42 2 45 -3 8 -13 -48 -32 -95 -32 -29 0 -42 -6 -58 -27 -15 -21 -20 -24 -21
-11 0 24 -11 25 -118 11 -54 -7 -127 -15 -164 -17 -61 -5 -68 -3 -68 13 0 25
-27 34 -39 13 -8 -14 -10 -14 -11 -2 0 13 -1 13 -10 0 -5 -8 -7 -23 -4 -32 3
-11 0 -19 -8 -19 -89 -9 -173 -21 -193 -29 -25 -10 -55 5 -55 27 0 11 -5 13
-17 7 -10 -4 -43 -8 -74 -8 -55 -1 -89 -16 -89 -41 0 -7 -7 -18 -15 -25 -10
-9 -12 -17 -5 -30 12 -23 -3 -36 -55 -45 -53 -10 -57 -13 -44 -36 7 -15 18
-19 38 -16 16 3 34 1 41 -3 6 -4 42 -2 78 5 57 11 70 10 89 -2 13 -8 29 -13
37 -10 13 5 43 103 34 112 -2 3 -34 1 -71 -3 -37 -5 -72 -5 -78 -1 -15 9 8 16
93 28 37 5 71 12 75 14 5 3 24 2 43 -3 20 -4 26 -9 15 -9 -22 -2 -66 -31 -47
-31 7 0 12 -7 12 -16 0 -12 5 -15 23 -9 12 4 38 9 57 12 19 3 43 12 53 21 9 8
18 13 20 11 26 -44 27 -50 13 -55 -12 -5 -12 -8 2 -25 22 -25 32 -24 33 4 0
17 2 18 7 6 4 -9 16 -15 27 -13 11 1 48 5 83 9 34 5 62 12 62 16 0 8 -107 3
-136 -6 -7 -2 -14 8 -17 21 -4 24 -2 25 37 21 29 -3 45 1 53 12 8 10 15 12 20
6 12 -15 46 -12 51 5 7 22 24 30 42 20 11 -6 21 -5 28 2 9 9 12 9 12 -1 0 -15
50 -9 99 11 14 6 42 12 61 13 19 1 63 5 98 10 53 7 64 12 75 33 16 35 31 37
45 8 7 -16 21 -26 39 -28 42 -5 104 8 114 23 8 12 10 12 18 0 6 -9 18 -12 37
-7 54 12 152 18 157 9 3 -5 -22 -15 -56 -22 -127 -26 -136 -29 -67 -25 48 2
57 1 35 -5 -16 -5 -24 -9 -16 -10 23 -2 3 -15 -42 -28 -28 -8 -43 -9 -48 -2
-6 11 -101 5 -120 -7 -15 -9 -192 -34 -201 -28 -5 3 -14 1 -21 -4 -7 -6 -28
-12 -47 -15 -22 -2 -11 -4 29 -5 35 -1 62 -4 60 -7 -5 -5 -43 -13 -69 -14 -13
-1 -13 -2 0 -11 13 -9 13 -11 0 -20 -22 -14 -30 -12 -24 5 7 16 -22 21 -42 7
-14 -9 -25 -50 -15 -56 14 -9 154 45 166 64 3 6 15 10 25 10 10 0 25 7 34 15
8 8 23 15 33 15 11 0 54 9 97 20 52 14 82 18 90 11 20 -16 251 11 376 44 63
17 73 18 66 6 -4 -6 -2 -11 3 -11 6 0 11 -4 11 -8 0 -14 -70 -32 -155 -40 -70
-6 -81 -10 -90 -29 -12 -29 -29 -30 -20 -2 6 18 4 20 -15 14 -13 -4 -25 -3
-29 4 -5 7 -23 6 -61 -4 -30 -8 -79 -16 -107 -17 -42 -2 -53 -6 -53 -19 0 -14
7 -15 53 -7 28 5 59 10 67 10 8 0 23 8 33 16 21 19 35 9 17 -13 -11 -13 -9
-15 11 -16 23 -1 23 -1 -4 -11 -20 -7 -32 -7 -42 2 -13 11 -37 8 -80 -10 -11
-4 -29 -12 -40 -16 -19 -7 -19 -8 3 -11 12 -3 22 -9 22 -14 0 -5 8 -9 18 -10
9 0 -1 -6 -23 -13 -28 -8 -42 -9 -47 -2 -5 8 -8 8 -8 0 0 -6 -12 -16 -26 -22
-14 -7 -23 -16 -19 -21 8 -14 -8 -21 -77 -30 -35 -5 -106 -15 -158 -22 -78
-11 -99 -18 -116 -38 -19 -22 -22 -23 -50 -9 -42 21 -74 17 -92 -12 -9 -14
-12 -22 -8 -18 5 4 15 0 24 -8 11 -11 25 -14 46 -9 17 3 49 7 71 9 53 3 114
14 205 36 41 10 125 23 185 30 134 15 149 22 141 61 -7 35 0 39 67 44 28 1 62
6 75 10 13 4 22 3 22 -3 0 -12 -17 -18 -82 -27 -54 -7 -77 -27 -59 -49 10 -11
10 -20 1 -36 -19 -35 1 -41 55 -14 49 23 119 34 100 15 -13 -12 -90 -41 -134
-49 -28 -6 -37 -15 -53 -52 -17 -41 -18 -42 -13 -12 l5 33 -47 -7 c-34 -5 -44
-4 -39 5 5 7 13 10 19 8 18 -6 67 22 67 38 0 22 -10 23 -85 8 -38 -7 -80 -13
-92 -13 -12 0 -75 -12 -140 -26 -65 -15 -133 -29 -150 -31 -34 -5 -42 -20 -21
-41 9 -9 7 -12 -8 -12 -40 0 -79 -75 -54 -104 14 -18 -15 -36 -59 -36 -37 0
-40 13 -8 27 12 6 23 20 24 32 2 18 -1 19 -17 11 -24 -13 -88 -13 -74 -1 5 5
25 14 44 19 l35 10 -41 1 c-39 1 -61 -15 -56 -41 3 -12 -179 -54 -212 -50 -11
1 -27 -5 -37 -13 -13 -13 -18 -13 -22 -3 -4 9 -6 7 -6 -4 -1 -24 -37 -41 -71
-33 -15 3 -31 2 -34 -4 -4 -5 -22 -7 -41 -4 -28 4 -35 2 -35 -11 0 -24 -15
-19 -30 9 -16 30 -7 42 35 47 21 2 31 9 33 23 3 21 -13 23 -95 11 -24 -3 -33
-1 -33 10 0 8 -6 14 -14 14 -8 0 -16 6 -18 12 -4 10 -17 9 -63 -2 l-58 -16 0
-67 c1 -37 -3 -67 -7 -67 -4 0 -11 -10 -14 -22 l-7 -23 -9 22 c-7 17 -4 35 9
66 20 47 17 97 -5 97 -8 0 -14 -10 -14 -25 0 -25 -1 -25 -24 -10 -15 10 -33
14 -49 10 -31 -8 -39 4 -24 35 14 28 44 42 34 16 -5 -14 -3 -16 13 -11 10 3
43 8 72 11 29 2 55 9 56 14 2 6 8 7 13 4 6 -3 16 -1 23 6 8 6 26 9 40 6 18 -3
26 0 26 10 0 8 5 14 10 14 6 0 10 6 10 14 0 8 6 16 13 19 6 2 8 8 4 13 -5 5
-16 -1 -25 -13 -14 -18 -31 -22 -107 -27 -113 -8 -195 -26 -195 -44 0 -7 -7
-15 -15 -18 -8 -4 -15 -18 -15 -34 0 -16 -5 -30 -11 -32 -6 -2 -11 -17 -11
-33 0 -28 -12 -44 -32 -45 -5 0 -3 6 3 13 6 8 8 16 6 19 -6 5 8 79 21 111 4
12 1 17 -10 17 -9 0 -16 -4 -16 -9 0 -4 -11 -6 -25 -3 -14 2 -31 0 -38 -6 -13
-10 -86 -27 -101 -23 -5 1 -16 -1 -25 -5 -14 -5 -13 -7 4 -14 19 -8 19 -9 -1
-9 -24 -1 -41 27 -21 33 30 9 118 35 177 51 76 22 74 21 66 34 -4 6 -19 4 -42
-5 -20 -8 -60 -16 -89 -17 -30 -2 -57 -6 -61 -10 -13 -13 -23 -7 -17 10 5 13
2 15 -11 10 -10 -4 -24 -7 -33 -7 -8 0 -13 -6 -10 -13 2 -6 -2 -18 -10 -26
-12 -11 -14 -8 -11 20 3 33 5 34 60 44 31 6 59 12 62 16 7 6 -36 4 -88 -6 -37
-7 -38 -7 -26 15 6 12 9 24 6 27 -9 9 -37 -18 -30 -29 3 -5 1 -15 -6 -23 -7
-9 -8 -15 -1 -20 15 -9 -10 -45 -31 -45 -19 0 -24 19 -10 35 5 6 15 30 22 55
7 25 20 56 27 68 19 31 13 36 -34 23 -21 -6 -57 -11 -79 -11 -76 0 -100 -9
-99 -36 0 -14 6 -29 14 -33 8 -5 11 -16 7 -26 -5 -14 -9 -15 -21 -5 -12 10
-16 9 -19 -1 -6 -19 -15 -72 -26 -149 -11 -88 -21 -123 -31 -113 -4 4 -2 42 5
83 7 41 9 80 5 86 -5 5 -6 20 -2 32 3 15 0 24 -11 28 -9 3 -16 13 -16 22 0 12
-3 13 -12 4 -15 -15 -72 -16 -63 -2 4 6 14 10 23 9 10 -1 25 1 35 4 39 15 47
16 48 4 0 -7 7 5 14 26 8 21 12 43 9 50 -2 7 2 30 11 50 8 20 15 42 15 48 0
11 -74 9 -215 -8 -62 -7 -50 9 20 26 46 11 120 19 230 26 23 1 50 5 60 8 19 6
138 17 230 21 22 1 49 7 59 13 19 11 56 6 56 -6 0 -21 -121 -51 -201 -51 -39
0 -65 -20 -55 -45 7 -19 34 -19 79 0 20 8 50 15 67 15 16 0 30 5 30 11 0 6 12
10 28 8 37 -2 112 12 112 22 0 4 -4 11 -10 14 -16 10 -12 23 13 40 25 16 172
31 163 16 -3 -4 1 -17 9 -27 13 -18 14 -18 21 0 4 11 2 21 -7 27 -11 7 -10 11
6 23 17 13 18 18 7 36 -13 21 -9 40 9 40 22 0 41 31 35 56 -4 15 -10 24 -13
20 -3 -3 -11 -2 -17 3 -10 9 -46 14 -73 12 -7 -1 -13 -8 -13 -16 0 -8 -7 -15
-15 -15 -9 0 -15 -9 -15 -24 0 -14 -4 -28 -10 -31 -23 -14 -7 -25 40 -25 28 0
50 -4 50 -9 0 -9 -49 -18 -215 -41 -38 -5 -101 -15 -140 -20 -38 -6 -105 -15
-148 -21 -44 -5 -98 -13 -120 -18 -77 -17 -146 -22 -164 -13 -14 8 -7 12 32
17 28 3 60 10 73 16 13 5 45 9 72 9 43 0 50 3 50 20 0 11 7 20 16 20 8 0 12
-5 8 -11 -4 -8 1 -9 17 -4 12 4 54 7 93 7 39 0 76 4 83 10 7 5 16 7 21 4 4 -2
53 3 108 12 73 13 99 21 99 32 0 18 -35 18 -115 1 -30 -7 -83 -12 -117 -12
-34 1 -80 -6 -103 -14 -24 -8 -59 -15 -80 -15 -20 0 -62 -9 -93 -19 -57 -20
-72 -14 -42 16 9 8 37 16 63 18 94 7 162 28 162 51 0 8 -5 14 -12 14 -6 0 -3
6 8 14 15 12 16 17 7 27 -10 10 -31 10 -100 1 -83 -10 -127 -10 -182 2 -12 3
-53 -2 -89 -10 -46 -11 -68 -12 -70 -5 -2 6 -20 11 -40 12 l-37 1 45 9 c25 5
70 11 100 13 30 2 63 7 74 11 11 5 27 3 39 -4 11 -7 22 -9 26 -4 3 4 50 9 104
10 74 2 96 -1 90 -10 -4 -7 2 -5 12 3 11 9 16 10 11 3 -4 -7 -2 -13 3 -13 6 0
11 6 12 13 2 30 9 51 20 57 7 5 9 16 5 25 -3 10 -2 23 4 30 8 9 8 15 0 20 -5
3 -10 15 -10 25 0 14 12 21 50 29 68 15 81 14 74 -4 -4 -8 -12 -15 -20 -15 -8
0 -14 -7 -14 -15 0 -8 -7 -15 -15 -15 -8 0 -15 5 -15 10 0 6 5 10 10 10 6 0
10 4 10 10 0 17 -28 -1 -33 -21 -7 -26 -4 -34 10 -34 21 0 26 -14 10 -30 -9
-8 -23 -15 -31 -15 -9 0 -16 -4 -16 -10 0 -5 9 -10 19 -10 24 0 17 -34 -11
-54 -11 -8 -18 -23 -16 -33 2 -11 -4 -28 -12 -38 -14 -17 -13 -18 25 -12 22 4
55 7 74 7 33 0 34 1 15 15 -16 13 -17 16 -4 25 8 5 29 10 45 10 17 1 48 7 70
15 22 8 48 15 58 15 9 0 17 6 18 13 0 10 2 10 6 0 9 -25 20 -12 26 30 3 24 9
51 13 60 3 9 2 17 -4 17 -5 0 -15 -20 -21 -45 -15 -59 -23 -57 -15 4 l6 48
-47 -7 c-52 -8 -68 -23 -60 -58 6 -23 -15 -37 -67 -44 -13 -2 -28 -7 -35 -11
-13 -8 -43 1 -43 14 0 13 25 21 69 24 53 3 54 4 47 21 -3 9 3 32 15 51 20 32
25 34 68 32 26 -1 51 0 57 3 5 3 59 9 119 13 61 4 119 10 130 13 37 10 185 14
185 4 0 -11 -120 -32 -179 -32 -39 0 -41 -2 -41 -30 0 -17 5 -30 13 -31 45 -3
124 4 134 12 7 7 13 6 17 0 11 -17 -31 -31 -96 -31 -35 0 -70 -4 -78 -10 -9
-5 -19 -5 -27 2 -17 14 -16 28 2 28 10 0 15 10 15 29 l0 28 -50 -10 c-31 -6
-50 -15 -50 -23 0 -24 -1 -28 -18 -56 -9 -16 -25 -28 -37 -29 -12 -1 -7 -4 12
-9 33 -8 86 -5 113 6 8 3 71 8 140 10 176 7 187 8 196 17 13 12 62 8 78 -8 17
-18 46 -19 79 -4 19 8 27 26 41 86 9 41 16 77 13 79 -2 2 -26 -1 -53 -7 -94
-20 -104 -21 -121 -14 -14 6 -11 10 17 17 19 5 49 11 65 13 29 3 206 45 253
60 18 6 21 4 16 -9 -5 -13 1 -16 27 -17 l34 -1 -35 -9 c-19 -5 -68 -14 -109
-19 -40 -5 -76 -12 -80 -15 -13 -13 27 -24 74 -20 l50 4 -45 -17 c-56 -21 -70
-30 -70 -45 0 -9 3 -8 8 1 5 7 16 10 25 7 8 -4 24 -2 34 3 20 10 43 6 43 -9 0
-5 -15 -9 -32 -10 l-33 -1 34 -9 c19 -6 44 -7 60 -1 29 9 61 5 61 -8 0 -5 7
-7 15 -4 8 4 15 12 15 20 0 8 5 14 10 14 6 0 10 -5 10 -10 0 -7 7 -7 20 0 11
6 36 8 55 4 49 -9 80 1 93 31 6 14 18 25 26 25 9 0 15 14 18 40 4 42 -14 52
-20 12 -3 -18 -10 -22 -42 -22 -21 0 -42 -4 -45 -10 -3 -5 -13 -10 -21 -10 -8
0 -26 -11 -39 -25 -19 -18 -34 -24 -63 -22 -20 2 -49 0 -63 -4 -46 -12 -54 5
-19 41 22 22 34 29 39 21 4 -6 15 -9 24 -5 9 3 14 10 11 15 -3 5 0 9 5 9 6 0
11 -6 12 -12 0 -10 2 -10 6 0 2 6 9 10 14 6 12 -7 99 34 96 46 -1 4 2 7 8 7 5
-1 8 -12 7 -24 -4 -25 20 -31 47 -14 13 8 13 12 1 26 -12 14 -12 18 1 26 8 4
21 6 29 4 10 -3 22 6 33 25 23 37 37 38 37 3z m-1502 -7 c-3 -15 0 -27 8 -30
8 -3 14 -1 14 4 0 6 7 10 15 10 9 0 15 -9 15 -25 0 -22 -3 -24 -29 -19 -23 5
-30 2 -36 -15 -7 -24 -25 -28 -25 -6 0 9 -9 15 -25 15 -14 0 -25 5 -25 11 0 5
3 8 8 6 17 -11 52 13 52 36 0 25 7 37 23 37 5 0 7 -11 5 -24z m1058 -14 c-3
-2 -72 -6 -153 -7 -159 -3 -301 -19 -317 -35 -6 -6 -14 -10 -20 -10 -5 0 -1 6
10 14 28 21 11 30 -30 16 -20 -6 -53 -11 -73 -10 -88 4 -132 -1 -148 -16 -12
-13 -19 -13 -30 -4 -15 13 -90 2 -173 -26 -51 -17 -52 -17 -52 -4 0 6 7 10 15
10 9 0 33 11 55 25 22 14 49 25 60 25 11 0 50 11 87 25 56 21 68 23 75 11 9
-16 92 -31 110 -19 14 9 73 12 298 18 163 4 238 10 247 19 4 3 15 -1 25 -11
10 -9 16 -18 14 -21z m712 26 c-5 -15 -159 -58 -203 -56 -29 0 -29 1 -5 7 14
4 43 15 65 26 66 30 150 44 143 23z m266 -3 c-10 -8 -41 -22 -69 -31 -27 -9
-59 -23 -70 -30 -11 -8 -31 -14 -45 -14 l-25 1 24 19 c13 11 29 20 35 20 7 0
39 11 72 25 32 13 68 24 78 25 20 0 20 0 0 -15z m471 5 c-3 -5 3 -10 15 -10
12 0 18 -4 15 -10 -3 -5 -20 -10 -37 -10 -30 0 -31 0 -13 20 19 21 30 27 20
10z m2102 -6 c7 -19 -13 -34 -45 -34 -27 0 -41 28 -21 41 23 14 59 10 66 -7z
m-3237 2 c0 -3 -4 -8 -10 -11 -5 -3 -10 -1 -10 4 0 6 5 11 10 11 6 0 10 -2 10
-4z m1007 -13 c-11 -12 -30 -16 -56 -14 -22 1 -48 -2 -58 -7 -19 -10 -68 -20
-142 -29 -34 -4 -42 -2 -36 7 6 10 2 12 -13 8 -42 -11 -31 10 13 27 54 20 82
15 40 -8 -27 -14 -28 -16 -8 -17 12 0 44 7 70 17 41 14 117 27 188 32 18 1 18
0 2 -16z m2339 -8 c-16 -17 -46 -20 -46 -6 0 11 18 19 43 20 16 1 17 -1 3 -14z
m-336 -14 c0 -6 -4 -13 -10 -16 -5 -3 -10 1 -10 9 0 9 5 16 10 16 6 0 10 -4
10 -9z m-4711 -17 c10 -10 -13 -17 -96 -29 -48 -8 -100 -17 -115 -21 -22 -5
-28 -3 -28 10 0 9 -6 16 -12 16 -9 0 -8 4 2 10 8 5 44 10 80 10 36 0 72 5 80
10 13 9 78 5 89 -6z m3143 -6 c-7 -7 -12 -8 -12 -2 0 14 12 26 19 19 2 -3 -1
-11 -7 -17z m-4202 3 c0 -6 -4 -13 -10 -16 -5 -3 -10 1 -10 9 0 9 5 16 10 16
6 0 10 -4 10 -9z m2630 -11 c0 -5 -6 -10 -14 -10 -8 0 -18 5 -21 10 -3 6 3 10
14 10 12 0 21 -4 21 -10z m1857 -22 c-3 -8 -6 -5 -6 6 -1 11 2 17 5 13 3 -3 4
-12 1 -19z m-3717 8 c0 -2 -7 -6 -15 -10 -8 -3 -15 -1 -15 4 0 6 7 10 15 10 8
0 15 -2 15 -4z m1170 -6 c0 -5 -9 -10 -21 -10 -11 0 -29 -5 -39 -10 -12 -6
-21 -7 -25 0 -3 5 7 12 22 16 15 3 33 7 38 9 19 6 25 5 25 -5z m1204 -11 c-3
-5 -11 -9 -18 -9 -8 0 -29 -7 -47 -15 l-34 -16 40 5 c42 6 84 -8 55 -18 -8 -2
-33 -7 -55 -10 -22 -3 -55 -8 -72 -12 -25 -5 -33 -3 -33 8 0 8 15 20 33 26 22
7 26 10 12 11 -11 1 -27 6 -35 12 -12 8 -10 10 10 8 14 -1 32 0 40 3 73 25
117 28 104 7z m480 2 c8 -12 -18 -17 -98 -20 -39 -1 -73 -4 -76 -6 -17 -10
-90 -22 -90 -14 0 13 72 29 156 34 42 2 79 7 82 10 8 8 20 6 26 -4z m-1923
-24 c-13 -13 -26 -3 -16 12 3 6 11 8 17 5 6 -4 6 -10 -1 -17z m1553 15 c10
-16 -23 -72 -44 -72 -23 0 -24 3 -7 32 25 45 40 57 51 40z m732 -18 c-4 -9 -9
-15 -11 -12 -3 3 -3 13 1 22 4 9 9 15 11 12 3 -3 3 -13 -1 -22z m-2816 6 c0
-5 -7 -10 -16 -10 -8 0 -12 5 -9 10 3 6 10 10 16 10 5 0 9 -4 9 -10z m1800 -6
c0 -2 -7 -4 -15 -4 -8 0 -15 4 -15 10 0 5 7 7 15 4 8 -4 15 -8 15 -10z m899
-30 c-12 -15 -68 -29 -77 -20 -3 4 7 17 23 30 23 19 33 21 47 13 12 -8 14 -15
7 -23z m1321 22 c0 -14 -21 -26 -46 -26 -21 0 -17 16 9 28 30 15 37 14 37 -2z
m225 4 c-3 -5 -10 -10 -16 -10 -5 0 -9 5 -9 10 0 6 7 10 16 10 8 0 12 -4 9
-10z m-3305 -4 c0 -3 -4 -8 -10 -11 -5 -3 -10 -1 -10 4 0 6 5 11 10 11 6 0 10
-2 10 -4z m-2144 -28 c-4 -13 -9 -36 -12 -53 -5 -29 -24 -60 -24 -39 0 9 17
75 25 102 8 22 18 13 11 -10z m4367 11 c-7 -7 -49 -18 -94 -26 -45 -8 -99 -23
-120 -34 -63 -32 -137 -20 -76 12 27 15 118 39 171 44 21 3 41 7 44 10 3 3 23
5 46 5 30 0 37 -3 29 -11z m1169 -11 c-6 -6 -15 -8 -19 -4 -4 4 -1 11 7 16 19
12 27 3 12 -12z m-5131 -35 c-16 -58 -14 -104 4 -97 11 5 13 2 9 -10 -3 -9
-12 -16 -20 -16 -7 0 -20 -12 -28 -27 l-15 -28 -1 36 c0 19 7 44 15 55 8 10
15 27 15 38 0 24 22 97 27 92 3 -2 0 -21 -6 -43z m789 38 c0 -6 -4 -13 -10
-16 -5 -3 -10 1 -10 9 0 9 5 16 10 16 6 0 10 -4 10 -9z m1162 -14 c-5 -7 -13
-27 -17 -44 -6 -30 -35 -48 -35 -23 0 6 -9 10 -20 10 -11 0 -20 5 -20 11 0 6
-7 3 -16 -6 -21 -21 -46 -15 -50 11 -5 30 20 48 66 46 21 -1 49 2 62 7 27 10
43 4 30 -12z m2168 -16 c-8 -15 -5 -20 11 -24 29 -8 13 -30 -17 -24 -14 2 -27
0 -30 -4 -8 -14 -24 -11 -24 5 0 7 7 30 15 50 14 32 18 35 35 26 16 -9 18 -15
10 -29z m-3850 10 c0 -11 -31 -24 -39 -16 -3 3 1 10 9 15 19 12 30 12 30 1z
m-550 -5 c0 -2 -7 -6 -15 -10 -8 -3 -15 -1 -15 4 0 6 7 10 15 10 8 0 15 -2 15
-4z m3010 -12 c0 -8 -5 -12 -10 -9 -6 4 -8 11 -5 16 9 14 15 11 15 -7z m110
-25 c0 -12 -7 -19 -19 -19 -17 0 -18 3 -8 24 13 27 27 25 27 -5z m-1760 -5 c0
-14 -4 -23 -10 -19 -5 3 -10 15 -10 26 0 10 5 19 10 19 6 0 10 -12 10 -26z
m-150 -4 c-24 -15 -37 -11 -16 5 11 8 22 12 25 9 3 -3 -1 -9 -9 -14z m2340 16
c0 -3 -4 -8 -10 -11 -5 -3 -10 -1 -10 4 0 6 5 11 10 11 6 0 10 -2 10 -4z m720
-6 c0 -5 -9 -10 -20 -10 -10 0 -23 -8 -29 -17 -5 -10 -22 -18 -38 -19 -15 -1
-36 -2 -46 -3 -11 0 -21 -10 -24 -21 -3 -11 -14 -20 -24 -20 -29 0 -31 -17 -2
-25 42 -10 11 -22 -79 -30 -43 -4 -78 -11 -78 -16 0 -15 -18 -10 -24 8 -4 9
-2 21 4 27 15 15 12 25 -7 20 -62 -16 -340 -50 -347 -43 -6 6 -6 9 0 10 5 1
22 3 38 5 15 1 46 12 69 23 22 11 44 18 48 16 15 -10 235 28 275 46 23 11 48
17 56 14 8 -3 35 -1 59 5 24 6 50 12 57 12 6 1 12 5 12 9 0 4 19 10 43 12 23
2 45 4 50 5 4 1 7 -2 7 -8z m403 -17 c-7 -2 -21 -2 -30 0 -10 3 -4 5 12 5 17
0 24 -2 18 -5z m-3618 -13 c-3 -5 -11 -10 -16 -10 -6 0 -7 5 -4 10 3 6 11 10
16 10 6 0 7 -4 4 -10z m1695 6 c0 -3 -4 -8 -10 -11 -5 -3 -10 -1 -10 4 0 6 5
11 10 11 6 0 10 -2 10 -4z m819 -12 c2 -2 -5 -4 -17 -4 -13 0 -28 -11 -37 -27
-16 -28 -16 -28 -11 -3 3 14 6 31 6 38 0 8 9 10 28 6 15 -4 29 -8 31 -10z
m-119 -4 c0 -5 -5 -10 -11 -10 -5 0 -7 5 -4 10 3 6 8 10 11 10 2 0 4 -4 4 -10z
m-2540 -10 c0 -5 -5 -10 -11 -10 -5 0 -7 5 -4 10 3 6 8 10 11 10 2 0 4 -4 4
-10z m-75 -10 c-3 -5 -30 -10 -58 -9 -41 1 -47 3 -27 9 37 12 92 12 85 0z
m2492 4 c-3 -3 -12 -4 -19 -1 -8 3 -5 6 6 6 11 1 17 -2 13 -5z m1023 -15 c-7
-11 -14 -18 -17 -15 -8 8 5 36 17 36 7 0 7 -6 0 -21z m-3979 -16 c-12 -20 -14
-14 -5 12 4 9 9 14 11 11 3 -2 0 -13 -6 -23z m69 17 c0 -5 -4 -10 -10 -10 -5
0 -10 5 -10 10 0 6 5 10 10 10 6 0 10 -4 10 -10z m70 -10 c0 -5 -4 -10 -9 -10
-5 0 -11 -15 -14 -32 -12 -69 -25 -121 -33 -127 -5 -3 -11 -17 -13 -31 -2 -14
-4 -29 -5 -35 -1 -5 -5 -16 -10 -23 -4 -7 -5 -19 -2 -27 2 -7 0 -15 -7 -18 -6
-2 -12 -17 -13 -33 -3 -49 -4 -52 -18 -57 -11 -4 -14 2 -14 24 1 16 5 29 10
29 5 0 6 9 3 20 -4 12 0 31 9 45 9 13 16 31 16 40 0 8 6 24 12 35 10 16 10 24
0 40 -9 15 -9 19 0 18 6 -2 16 13 22 32 6 19 17 45 24 57 6 12 12 31 12 42 0
12 7 21 15 21 8 0 15 -4 15 -10z m3720 -10 c0 -4 -9 -19 -20 -33 -11 -14 -20
-30 -20 -36 0 -6 -11 -11 -25 -11 -18 0 -25 5 -25 20 0 11 -6 20 -12 20 -7 1
6 10 30 22 23 11 42 24 42 29 0 5 7 6 15 3 8 -4 15 -10 15 -14z m345 10 c-3
-5 -10 -10 -16 -10 -5 0 -9 5 -9 10 0 6 7 10 16 10 8 0 12 -4 9 -10z m-4474
-43 c-8 -8 -11 -5 -11 9 0 27 14 41 18 19 2 -9 -1 -22 -7 -28z m116 11 c-3 -8
-6 -5 -6 6 -1 11 2 17 5 13 3 -3 4 -12 1 -19z m2128 13 c-6 -5 -28 -12 -50
-15 l-40 -5 40 13 c49 18 62 19 50 7z m-350 -12 c7 -10 -51 -22 -65 -14 -6 3
-8 10 -5 15 7 11 64 10 70 -1z m243 -11 c-6 -18 -28 -21 -28 -4 0 9 7 16 16
16 9 0 14 -5 12 -12z m-48 -8 c0 -5 -4 -10 -10 -10 -5 0 -10 5 -10 10 0 6 5
10 10 10 6 0 10 -4 10 -10z m1130 -10 c-8 -6 -24 -9 -35 -9 -15 0 -13 4 10 14
32 14 49 10 25 -5z m1020 0 c0 -5 -5 -10 -11 -10 -5 0 -7 5 -4 10 3 6 8 10 11
10 2 0 4 -4 4 -10z m1657 -7 c-9 -9 -20 -13 -24 -9 -4 4 -1 11 7 16 25 16 35
11 17 -7z m-1687 3 c0 -3 -4 -8 -10 -11 -5 -3 -10 -1 -10 4 0 6 5 11 10 11 6
0 10 -2 10 -4z m-3165 -15 c3 -5 1 -12 -5 -16 -5 -3 -10 1 -10 9 0 18 6 21 15
7z m-101 -10 c3 -4 -5 -18 -18 -30 -22 -20 -24 -21 -30 -4 -10 25 34 57 48 34z
m2556 -36 c5 3 10 2 10 -3 0 -16 -13 -22 -27 -11 -10 9 -13 8 -13 -4 0 -20
-79 -33 -121 -21 -44 13 -36 27 24 42 29 7 63 16 77 20 19 6 27 4 32 -11 4
-10 12 -15 18 -12z m85 20 c-16 -8 -39 -14 -50 -14 -18 0 -17 1 5 14 14 8 36
14 50 14 24 -1 24 -1 -5 -14z m-3465 -54 c-12 -45 -34 -57 -24 -13 8 37 28 76
32 64 2 -6 -2 -29 -8 -51z m3618 47 c-4 -12 -88 -30 -97 -22 -3 2 4 11 15 19
24 18 87 20 82 3z m-2888 -8 c0 -5 -16 -10 -36 -10 -21 0 -33 4 -29 10 3 6 19
10 36 10 16 0 29 -4 29 -10z m-176 -9 c3 -5 -1 -12 -10 -15 -27 -11 -37 -7
-24 9 14 17 26 19 34 6z m3146 -15 c0 -6 -5 -17 -12 -24 -9 -9 -14 -6 -23 11
-9 18 -8 23 4 28 19 8 31 2 31 -15z m-190 -1 c0 -9 -6 -17 -12 -19 -7 -2 -29
-8 -48 -14 -22 -8 -38 -8 -44 -2 -9 9 4 15 27 11 4 0 7 4 7 9 0 6 -8 10 -17
11 -26 1 25 17 60 18 18 1 27 -4 27 -14z m-3380 -20 c0 -8 -4 -17 -10 -20 -6
-4 -10 5 -10 20 0 15 4 24 10 20 6 -3 10 -12 10 -20z m3625 15 c-3 -5 -10 -10
-16 -10 -5 0 -9 5 -9 10 0 6 7 10 16 10 8 0 12 -4 9 -10z m-3037 -22 c-3 -7
-15 -14 -29 -16 -24 -4 -24 -3 -4 12 24 19 38 20 33 4z m-168 -9 c13 -9 12
-10 -2 -5 -10 3 -18 1 -18 -5 0 -6 -5 -7 -10 -4 -11 7 -4 25 8 25 4 0 14 -5
22 -11z m3105 -5 c6 -2 -11 -3 -37 -1 -33 1 -48 -2 -48 -10 0 -7 -10 -13 -22
-13 l-23 0 23 18 c21 16 75 20 107 6z m-3345 -3 c0 -5 -11 -11 -25 -13 -28 -6
-35 8 -7 15 28 8 32 7 32 -2z m2764 0 c10 -15 -18 -29 -64 -32 -25 -1 -55 -8
-67 -15 -15 -9 -24 -10 -28 -3 -11 18 16 40 45 36 14 -3 39 1 56 8 36 16 51
18 58 6z m-2335 -15 c-12 -10 -69 -24 -69 -16 0 5 8 11 18 13 22 6 57 8 51 3z
m3091 -36 c0 -5 -7 -10 -15 -10 -8 0 -15 5 -15 10 0 6 7 10 15 10 8 0 15 -4
15 -10z m-355 -20 c-3 -5 -11 -10 -16 -10 -6 0 -7 5 -4 10 3 6 11 10 16 10 6
0 7 -4 4 -10z m270 0 c-16 -4 -41 -8 -55 -9 -20 0 -22 1 -10 9 8 5 33 9 55 9
39 -1 39 -2 10 -9z m-3649 -58 c-11 -10 -14 3 -8 33 l7 30 3 -28 c2 -16 1 -31
-2 -35z m410 43 c-23 -17 -36 -19 -36 -6 0 11 18 19 40 20 11 0 10 -3 -4 -14z
m2834 7 c0 -8 -78 -32 -110 -34 -8 0 -21 -5 -27 -11 -9 -7 -13 -5 -13 5 0 8 6
15 13 16 11 1 129 28 135 31 1 0 2 -3 2 -7z m310 -7 c-7 -9 -15 -13 -19 -10
-3 3 1 10 9 15 21 14 24 12 10 -5z m-805 -16 l40 -2 -40 -6 c-22 -4 -50 -11
-62 -15 -12 -4 -24 -2 -28 4 -10 17 6 32 29 26 11 -3 39 -6 61 -7z m-2695 -9
c0 -5 -5 -10 -11 -10 -5 0 -7 5 -4 10 3 6 8 10 11 10 2 0 4 -4 4 -10z m-135
-9 c3 -5 1 -12 -5 -16 -5 -3 -10 1 -10 9 0 18 6 21 15 7z m3625 -21 c-8 -6
-24 -9 -35 -9 -15 0 -13 4 10 14 32 14 49 10 25 -5z m-3170 -4 c0 -16 -18 -31
-27 -22 -8 8 5 36 17 36 5 0 10 -6 10 -14z m3090 -16 c-20 -13 -63 -13 -55 0
3 6 15 10 26 10 10 0 19 5 19 12 0 9 3 9 12 0 10 -10 10 -15 -2 -22z m-246 4
c9 -24 9 -24 -38 -24 -25 0 -47 -4 -50 -8 -3 -5 -31 -9 -63 -10 l-58 -1 40 14
c22 8 52 15 66 15 15 0 40 7 55 15 36 19 40 19 48 -1z m71 -4 c-27 -12 -43
-12 -25 0 8 5 22 9 30 9 10 0 8 -3 -5 -9z m-3105 -10 c0 -5 -7 -10 -15 -10 -8
0 -15 5 -15 10 0 6 7 10 15 10 8 0 15 -4 15 -10z m3207 -6 c-3 -3 -12 -4 -19
-1 -8 3 -5 6 6 6 11 1 17 -2 13 -5z m-3410 -41 c-3 -10 -5 -4 -5 12 0 17 2 24
5 18 2 -7 2 -21 0 -30z m3363 27 c0 -5 -7 -10 -16 -10 -8 0 -12 5 -9 10 3 6
10 10 16 10 5 0 9 -4 9 -10z m460 -20 c-8 -5 -24 -10 -35 -10 -17 0 -17 2 -5
10 8 5 24 10 35 10 17 0 17 -2 5 -10z m-3486 -68 c-16 -23 -19 -24 -22 -9 -2
10 4 30 14 45 16 23 19 24 22 9 2 -10 -4 -30 -14 -45z m1896 54 c0 -9 -30 -14
-35 -6 -4 6 3 10 14 10 12 0 21 -2 21 -4z m1456 -15 c-7 -11 -105 -35 -113
-28 -3 3 8 9 23 12 16 4 40 11 54 15 34 11 42 12 36 1z m-3694 -36 c-5 -27
-22 -45 -22 -23 0 25 12 58 20 53 4 -2 5 -16 2 -30z m71 -36 c-7 -8 -13 -21
-13 -27 0 -7 -4 -12 -10 -12 -15 0 -12 29 8 73 l17 40 6 -29 c3 -17 0 -35 -8
-45z m2513 24 c-11 -11 -19 6 -11 24 8 17 8 17 12 0 3 -10 2 -21 -1 -24z
m-1761 -3 c-4 -20 -3 -30 5 -30 6 0 10 -6 7 -12 -2 -7 -14 -11 -27 -10 -21 3
-22 1 -16 -31 4 -21 2 -38 -4 -42 -5 -3 -10 -17 -10 -30 0 -13 -4 -27 -10 -30
-5 -3 -10 -17 -10 -29 0 -22 -29 -58 -31 -40 -3 23 4 49 18 62 8 9 12 24 9 37
-3 13 1 41 8 63 8 22 12 43 9 46 -3 3 0 12 7 21 7 8 9 15 6 15 -4 0 -2 9 4 20
6 11 18 20 26 20 12 0 14 -7 9 -30z m-67 -21 c-20 -13 -27 -11 -24 7 4 24 30
37 34 17 2 -8 -2 -19 -10 -24z m1762 31 c0 -5 -15 -10 -32 -9 -28 0 -30 2 -13
9 28 12 45 12 45 0z m1027 4 c-3 -3 -12 -4 -19 -1 -8 3 -5 6 6 6 11 1 17 -2
13 -5z m-3350 -10 c-3 -3 -12 -4 -19 -1 -8 3 -5 6 6 6 11 1 17 -2 13 -5z
m2463 -14 c-8 -5 -22 -9 -30 -9 -10 0 -8 3 5 9 27 12 43 12 25 0z m244 1 c7
-10 -18 -34 -27 -25 -7 8 3 34 13 34 5 0 11 -4 14 -9z m-504 -11 c0 -10 -39
-24 -47 -17 -9 10 5 23 26 24 12 1 21 -2 21 -7z m203 -7 c-7 -2 -21 -2 -30 0
-10 3 -4 5 12 5 17 0 24 -2 18 -5z m-2103 -22 c0 -5 -7 -12 -16 -15 -24 -9
-28 -7 -14 9 14 17 30 20 30 6z m-510 -21 c0 -5 -4 -10 -10 -10 -5 0 -10 5
-10 10 0 6 5 10 10 10 6 0 10 -4 10 -10z m2395 -7 c-11 -3 -24 -9 -30 -13 -11
-9 -41 -13 -65 -10 -22 2 60 28 90 28 20 0 21 -1 5 -5z m-2085 -27 c0 -3 -4
-8 -10 -11 -5 -3 -10 -1 -10 4 0 6 5 11 10 11 6 0 10 -2 10 -4z m75 -6 c3 -5
1 -10 -4 -10 -6 0 -11 5 -11 10 0 6 2 10 4 10 3 0 8 -4 11 -10z m546 -42 c-4
-12 -14 -24 -20 -26 -8 -3 -7 5 4 22 21 32 27 33 16 4z m3569 18 c0 -16 -14
-36 -25 -36 -17 0 -28 17 -20 30 6 10 45 15 45 6z m-3635 -27 c-8 -12 -35 -12
-35 0 0 11 22 20 33 14 4 -2 5 -9 2 -14z m665 -4 c0 -14 -4 -25 -10 -25 -5 0
-10 -9 -10 -20 0 -19 1 -19 41 -4 23 10 44 13 49 8 15 -15 23 -64 11 -64 -6 0
-8 7 -4 17 4 11 3 14 -6 9 -15 -10 -161 -13 -167 -5 -5 9 21 19 47 19 13 0 19
7 19 24 0 14 4 27 10 31 5 3 7 12 3 20 -3 8 0 15 6 15 6 0 11 -11 11 -25z
m-1903 9 c-3 -3 -12 -4 -19 -1 -8 3 -5 6 6 6 11 1 17 -2 13 -5z m3439 -29
c-11 -8 -28 -15 -38 -15 -10 0 -18 -5 -18 -11 0 -5 -5 -7 -10 -4 -17 10 29 45
59 45 25 -1 25 -1 7 -15z m-3096 -11 c0 -8 -5 -12 -10 -9 -6 4 -8 11 -5 16 9
14 15 11 15 -7z m73 9 c-7 -2 -19 -2 -25 0 -7 3 -2 5 12 5 14 0 19 -2 13 -5z
m1312 -47 c0 -32 -4 -47 -18 -56 -27 -16 -33 -5 -19 33 7 19 12 41 12 50 0 9
6 17 13 17 8 0 12 -16 12 -44z m1511 2 c-5 -54 -34 -68 -32 -16 1 26 18 56 33
58 2 0 1 -19 -1 -42z m-582 1 c-3 -6 -12 -8 -20 -5 -8 3 -14 -1 -14 -9 0 -14
-71 -40 -92 -33 -18 6 67 54 100 56 20 1 30 -2 26 -9z m403 -21 c-3 -8 -6 -5
-6 6 -1 11 2 17 5 13 3 -3 4 -12 1 -19z m359 -15 c-11 -11 -17 4 -9 23 7 18 8
18 11 1 2 -10 1 -21 -2 -24z m-1766 -5 c0 -5 -7 -24 -15 -44 -8 -19 -12 -41
-8 -49 5 -16 -13 -45 -28 -45 -14 0 -10 34 6 56 17 23 19 38 4 28 -6 -3 -15 0
-20 7 -7 11 -9 10 -9 -3 0 -11 -8 -18 -18 -18 -10 0 -23 -5 -29 -11 -6 -6 -16
-8 -22 -5 -14 9 -14 36 -1 36 6 0 10 6 10 14 0 18 26 40 34 27 7 -11 24 -9 49
5 22 13 47 14 47 2z m520 0 c0 -26 -17 -40 -39 -33 -27 8 -27 19 2 33 30 14
37 14 37 0z m913 -4 c13 -13 -7 -34 -32 -34 -14 0 -48 -7 -75 -15 -27 -8 -63
-15 -80 -15 -29 1 -30 1 -12 15 11 8 36 17 55 21 20 3 56 12 81 19 57 16 56
16 63 9z m-395 -20 c-8 -7 -138 -34 -163 -33 -36 1 24 22 85 29 81 10 84 10
78 4z m-1573 -25 c-10 -15 -25 -10 -19 6 4 8 10 12 15 9 5 -3 7 -10 4 -15z
m-105 -26 c0 -7 -4 -13 -10 -13 -5 0 -10 12 -10 28 0 21 2 24 10 12 5 -8 10
-21 10 -27z m970 12 c0 -29 -12 -32 -31 -9 -10 13 -10 17 2 25 23 14 29 11 29
-16z m1600 17 c0 -7 -57 -32 -73 -32 -20 0 -3 17 26 27 43 14 47 14 47 5z
m-2142 -15 c5 8 12 8 26 -3 22 -15 19 -22 -10 -27 -10 -2 -30 -9 -44 -14 -31
-13 -37 -1 -13 31 12 16 20 20 26 12 5 -8 9 -8 15 1z m1797 -3 c-17 -7 -30
-20 -30 -30 0 -9 -6 -19 -13 -22 -6 -2 -12 3 -12 12 0 17 -20 21 -35 7 -14
-12 -158 -24 -150 -12 3 6 27 13 53 17 26 4 60 13 75 21 16 8 34 12 41 10 7
-3 18 -2 24 1 5 4 25 7 44 8 l33 1 -30 -13z m-765 -4 c0 -5 -4 -10 -10 -10 -5
0 -10 5 -10 10 0 6 5 10 10 10 6 0 10 -4 10 -10z m303 3 c-7 -2 -19 -2 -25 0
-7 3 -2 5 12 5 14 0 19 -2 13 -5z m-481 -15 c-9 -9 -15 -9 -24 0 -9 9 -7 12
12 12 19 0 21 -3 12 -12z m435 6 c-3 -3 -12 -4 -19 -1 -8 3 -5 6 6 6 11 1 17
-2 13 -5z m738 -9 c-16 -8 -42 -14 -57 -15 -15 0 -31 -8 -36 -17 -6 -9 -17
-18 -26 -19 -19 -3 -22 12 -3 19 6 3 -3 6 -22 6 -80 2 27 39 114 39 59 0 59 0
30 -13z m-1722 -10 c-3 -9 -8 -14 -10 -11 -3 3 -2 9 2 15 9 16 15 13 8 -4z
m-33 -4 c0 -13 -26 -32 -33 -24 -8 7 11 33 24 33 5 0 9 -4 9 -9z m-713 -33
c-3 -8 -6 -5 -6 6 -1 11 2 17 5 13 3 -3 4 -12 1 -19z"/>
<path d="M7665 7380 c-3 -5 -1 -10 4 -10 6 0 11 5 11 10 0 6 -2 10 -4 10 -3 0
-8 -4 -11 -10z"/>
<path d="M4186 7333 c-11 -11 -6 -23 9 -23 8 0 15 4 15 9 0 13 -16 22 -24 14z"/>
<path d="M4890 5909 c0 -5 5 -7 10 -4 6 3 10 8 10 11 0 2 -4 4 -10 4 -5 0 -10
-5 -10 -11z"/>
<path d="M4190 5514 c0 -8 5 -12 10 -9 6 4 8 11 5 16 -9 14 -15 11 -15 -7z"/>
<path d="M3610 5186 c0 -13 -7 -36 -14 -52 -17 -31 -11 -52 7 -31 37 40 48 91
22 101 -11 4 -15 -1 -15 -18z"/>
<path d="M3517 5150 c-20 -23 -37 -52 -37 -64 0 -12 -5 -27 -12 -34 -7 -7 -8
-12 -2 -12 6 0 16 11 21 23 9 19 17 23 42 19 26 -3 30 -1 28 17 -1 12 -5 21
-9 21 -13 0 -9 38 4 42 6 2 9 10 7 17 -3 7 -19 -4 -42 -29z"/>
<path d="M3520 5060 c0 -5 5 -10 11 -10 5 0 7 5 4 10 -3 6 -8 10 -11 10 -2 0
-4 -4 -4 -10z"/>
<path d="M2671 4874 c0 -11 3 -14 6 -6 3 7 2 16 -1 19 -3 4 -6 -2 -5 -13z"/>
<path d="M3215 4797 c-4 -10 -5 -21 -1 -24 10 -10 18 4 13 24 -4 17 -4 17 -12
0z"/>
<path d="M2831 4704 c0 -11 3 -14 6 -6 3 7 2 16 -1 19 -3 4 -6 -2 -5 -13z"/>
<path d="M5848 6163 c6 -2 18 -2 25 0 6 3 1 5 -13 5 -14 0 -19 -2 -12 -5z"/>
<path d="M7132 5264 c3 -29 35 -43 44 -19 3 8 12 11 20 8 8 -3 14 -1 14 3 0
19 -16 30 -48 33 -31 2 -33 1 -30 -25z"/>
<path d="M7180 5230 c0 -5 4 -10 9 -10 6 0 13 5 16 10 3 6 -1 10 -9 10 -9 0
-16 -4 -16 -10z"/>
<path d="M7548 5233 c7 -3 16 -2 19 1 4 3 -2 6 -13 5 -11 0 -14 -3 -6 -6z"/>
<path d="M7751 5144 c0 -11 3 -14 6 -6 3 7 2 16 -1 19 -3 4 -6 -2 -5 -13z"/>
<path d="M7860 5034 c-25 -27 -39 -51 -36 -60 3 -9 -1 -28 -9 -44 -8 -16 -15
-38 -15 -48 0 -11 -20 -49 -44 -85 -29 -43 -40 -68 -33 -71 7 -3 2 -3 -10 0
-17 4 -23 1 -23 -10 0 -11 10 -16 34 -16 28 0 40 7 64 38 30 38 41 66 63 167
7 33 21 74 30 90 16 30 33 85 25 85 -2 0 -22 -21 -46 -46z"/>
<path d="M7460 4950 c0 -5 5 -10 10 -10 6 0 10 5 10 10 0 6 -4 10 -10 10 -5 0
-10 -4 -10 -10z"/>
<path d="M8740 4846 c0 -2 7 -6 15 -10 8 -3 15 -1 15 4 0 6 -7 10 -15 10 -8 0
-15 -2 -15 -4z"/>
<path d="M7945 4649 c-4 -6 -5 -12 -2 -15 2 -3 7 2 10 11 7 17 1 20 -8 4z"/>
<path d="M7903 4348 c-11 -13 -34 -44 -52 -70 -17 -26 -40 -53 -50 -60 -10 -7
-21 -23 -25 -35 -6 -19 -4 -23 12 -23 37 0 35 -31 -5 -64 -68 -57 -134 -89
-180 -87 -24 1 -43 -2 -43 -7 0 -6 -6 -10 -12 -9 -59 2 -78 -4 -92 -30 -8 -16
-15 -24 -16 -20 0 10 -21 -12 -36 -38 -6 -11 -21 -21 -33 -23 -12 -2 -29 -14
-37 -28 -10 -14 -26 -24 -40 -24 -32 0 -39 -16 -20 -46 14 -20 20 -22 36 -14
26 14 77 13 83 -2 6 -19 -24 -37 -60 -38 -17 0 -34 -4 -37 -9 -3 -5 23 -32 57
-61 48 -40 72 -53 101 -55 63 -4 63 -19 -1 -48 -32 -14 -77 -29 -101 -33 -23
-4 -42 -10 -42 -15 0 -8 35 -6 60 4 17 6 44 10 218 32 78 9 132 21 149 32 l27
18 -30 3 c-28 3 -30 6 -26 33 2 16 -1 36 -7 43 -7 8 -27 51 -46 96 -36 87 -35
103 7 129 16 10 24 9 41 -2 45 -30 157 -139 169 -165 16 -32 68 -45 68 -16 0
34 -217 224 -257 224 -7 0 -13 7 -13 15 0 12 11 10 57 -10 63 -28 141 -91 198
-160 21 -25 44 -45 51 -45 23 0 28 110 13 327 -16 221 -23 253 -55 221 -9 -9
-16 -29 -16 -45 0 -15 -7 -40 -14 -55 -12 -23 -21 -28 -49 -28 -43 0 -46 21
-10 71 76 103 114 178 58 117z m-283 -743 c0 -8 -4 -15 -10 -15 -5 0 -10 7
-10 15 0 8 5 15 10 15 6 0 10 -7 10 -15z"/>
<path d="M7711 4174 c0 -11 3 -14 6 -6 3 7 2 16 -1 19 -3 4 -6 -2 -5 -13z"/>
<path d="M8646 4121 c-4 -7 -5 -15 -2 -18 9 -9 19 4 14 18 -4 11 -6 11 -12 0z"/>
<path d="M8643 4025 c-7 -8 -13 -33 -12 -57 0 -24 3 -36 6 -28 3 8 9 17 13 20
9 7 20 80 12 80 -4 -1 -13 -7 -19 -15z"/>
<path d="M9635 3990 c3 -5 8 -10 11 -10 2 0 4 5 4 10 0 6 -5 10 -11 10 -5 0
-7 -4 -4 -10z"/>
<path d="M9290 3771 c-36 -5 -46 -10 -48 -27 -3 -18 4 -22 37 -28 54 -8 71 0
71 35 0 16 -3 28 -7 27 -5 0 -28 -4 -53 -7z"/>
<path d="M9576 3731 c-4 -6 -18 -11 -31 -11 -13 0 -31 -3 -39 -6 -15 -6 -15
-8 1 -20 14 -10 16 -15 6 -25 -18 -18 -16 -24 12 -37 33 -15 102 -15 144 -1
24 9 31 17 31 37 -1 42 -24 64 -73 69 -27 3 -47 1 -51 -6z"/>
<path d="M9427 3693 c-14 -13 -6 -23 18 -23 16 0 23 -4 19 -13 -3 -8 2 -14 11
-14 11 0 14 6 9 16 -3 9 -7 22 -7 29 0 13 -39 17 -50 5z"/>
<path d="M7973 3660 c2 -32 22 -39 58 -20 13 8 19 7 19 0 0 -6 -7 -13 -15 -16
-8 -4 -15 -10 -15 -16 0 -10 30 -3 74 18 16 8 35 14 42 14 7 0 15 4 18 9 3 4
-15 7 -39 5 -25 -1 -47 2 -50 7 -4 5 -19 9 -35 9 -16 0 -32 5 -35 10 -12 20
-24 9 -22 -20z"/>
<path d="M7860 3610 c0 -5 6 -10 14 -10 8 0 18 5 21 10 3 6 -3 10 -14 10 -12
0 -21 -4 -21 -10z"/>
<path d="M7800 3600 c0 -5 12 -10 28 -10 21 0 24 2 12 10 -20 13 -40 13 -40 0z"/>
<path d="M9745 3530 c-3 -5 3 -10 15 -10 12 0 18 5 15 10 -3 6 -10 10 -15 10
-5 0 -12 -4 -15 -10z"/>
<path d="M8101 3206 c-10 -11 -9 -14 4 -12 8 1 21 8 27 14 9 9 8 12 -4 12 -8
0 -21 -6 -27 -14z"/>
<path d="M6120 2934 c0 -8 5 -12 10 -9 6 4 8 11 5 16 -9 14 -15 11 -15 -7z"/>
<path d="M6770 2839 c-11 -26 -11 -32 1 -40 24 -15 29 -10 29 25 0 46 -15 53
-30 15z"/>
<path d="M8390 2825 c0 -9 5 -15 11 -13 6 2 11 8 11 13 0 5 -5 11 -11 13 -6 2
-11 -4 -11 -13z"/>
<path d="M8440 2830 c-13 -8 -11 -12 10 -27 28 -20 86 -27 96 -12 19 32 -67
64 -106 39z"/>
<path d="M5942 2548 c-7 -7 -12 -20 -12 -30 0 -10 -7 -35 -15 -55 -21 -51 -1
-63 39 -24 26 26 28 33 22 75 -8 48 -14 54 -34 34z"/>
<path d="M8600 2534 c0 -22 3 -25 12 -16 7 7 26 12 42 12 38 0 23 17 -22 26
-30 6 -32 5 -32 -22z"/>
<path d="M8686 2471 c-3 -5 8 -14 24 -20 28 -9 29 -9 20 9 -11 21 -35 26 -44
11z"/>
<path d="M6006 2404 c-23 -22 -8 -39 15 -18 10 9 19 21 19 26 0 13 -17 9 -34
-8z"/>
<path d="M6126 2351 c-4 -7 -5 -15 -2 -18 9 -9 19 4 14 18 -4 11 -6 11 -12 0z"/>
<path d="M5711 2293 c0 -25 1 -26 9 -8 12 27 12 35 0 35 -5 0 -10 -12 -9 -27z"/>
<path d="M6003 2302 c-7 -4 -9 -13 -5 -19 5 -8 13 -9 22 -3 10 6 11 13 5 19
-6 6 -16 7 -22 3z"/>
<path d="M5765 2280 c4 -6 11 -8 16 -5 14 9 11 15 -7 15 -8 0 -12 -5 -9 -10z"/>
<path d="M4471 5114 c0 -11 3 -14 6 -6 3 7 2 16 -1 19 -3 4 -6 -2 -5 -13z"/>
<path d="M6305 3820 c-3 -5 -1 -10 4 -10 6 0 11 5 11 10 0 6 -2 10 -4 10 -3 0
-8 -4 -11 -10z"/>
<path d="M6570 3970 c0 -8 25 -20 41 -20 20 0 7 18 -16 22 -14 3 -25 2 -25 -2z"/>
<path d="M6575 3930 c-3 -5 3 -10 15 -10 12 0 18 5 15 10 -3 6 -10 10 -15 10
-5 0 -12 -4 -15 -10z"/>
<path d="M6127 1733 c-4 -3 -7 -13 -7 -22 1 -13 3 -13 11 2 11 19 8 33 -4 20z"/>
<path d="M1791 996 c-7 -8 -11 -23 -8 -33 3 -14 6 -12 16 11 13 33 9 43 -8 22z"/>
<path d="M1445 970 c-3 -5 1 -10 9 -10 9 0 16 5 16 10 0 6 -4 10 -9 10 -6 0
-13 -4 -16 -10z"/>
<path d="M2623 973 c-34 -7 -28 -20 7 -15 17 2 30 8 30 13 0 5 -3 8 -7 8 -5
-1 -18 -4 -30 -6z"/>
<path d="M1935 866 c-10 -7 -19 -26 -19 -45 -1 -27 2 -31 26 -31 19 0 29 7 36
28 5 15 13 35 17 45 6 13 2 17 -17 17 -13 0 -32 -6 -43 -14z"/>
<path d="M3183 853 c-13 -2 -23 -9 -23 -15 0 -6 10 -8 23 -4 12 3 25 6 30 6 4
0 7 5 7 10 0 6 -3 9 -7 9 -5 -1 -18 -4 -30 -6z"/>
<path d="M1643 832 c-24 -2 -43 -8 -43 -13 0 -6 -4 -8 -8 -5 -10 6 -38 -11
-31 -19 6 -5 158 13 171 21 5 3 8 8 8 12 0 8 -31 9 -97 4z"/>
<path d="M2294 758 c-3 -4 -16 -8 -29 -8 -25 0 -38 -21 -29 -45 4 -8 15 -15
25 -15 31 0 94 29 107 50 10 17 9 20 -11 24 -31 7 -57 4 -63 -6z"/>
<path d="M3070 726 c-84 -19 -133 -43 -126 -61 3 -9 0 -15 -9 -15 -8 0 -15 -5
-15 -10 0 -6 22 -8 58 -5 56 6 57 6 29 -10 -32 -19 -55 -22 -149 -24 -55 -1
-68 -4 -68 -17 0 -13 11 -15 75 -11 42 3 81 10 88 15 7 5 39 13 72 17 70 8
115 29 115 52 0 12 -3 14 -11 6 -8 -8 -22 -8 -47 -1 -20 6 -53 7 -75 4 -24 -4
-36 -3 -33 3 4 5 28 13 54 16 58 8 140 33 147 46 8 12 -37 10 -105 -5z"/>
<path d="M2515 703 c-64 -5 -105 -13 -105 -22 0 -15 41 -20 69 -9 14 6 42 14
61 17 44 8 28 17 -25 14z"/>
<path d="M2778 683 c7 -3 16 -2 19 1 4 3 -2 6 -13 5 -11 0 -14 -3 -6 -6z"/>
<path d="M2066 671 c-3 -5 1 -12 10 -15 27 -11 37 -7 24 9 -14 17 -26 19 -34
6z"/>
<path d="M2509 656 c-4 -4 -42 -12 -71 -15 -5 -1 -8 -5 -8 -11 0 -13 97 -13
105 0 4 6 12 7 18 3 7 -4 6 0 -2 10 -13 16 -33 22 -42 13z"/>
<path d="M2662 634 c-23 -16 -7 -32 30 -30 29 2 98 30 98 40 0 9 -114 0 -128
-10z"/>
<path d="M2345 621 c-3 -5 -1 -12 5 -16 12 -7 30 2 30 16 0 12 -27 12 -35 0z"/>
<path d="M2227 613 c-15 -15 -5 -23 27 -23 40 0 66 8 66 21 0 10 -83 12 -93 2z"/>
<path d="M2555 609 c-11 -16 2 -22 32 -14 26 7 26 8 8 15 -28 12 -33 12 -40
-1z"/>
<path d="M1246 590 c-77 -13 -80 -16 -59 -44 15 -19 22 -22 42 -15 13 5 31 7
41 4 20 -6 74 40 65 55 -7 11 -19 11 -89 0z"/>
<path d="M2475 590 c-4 -6 7 -10 24 -10 17 0 31 5 31 10 0 6 -11 10 -24 10
-14 0 -28 -4 -31 -10z"/>
<path d="M2727 577 c-21 -12 -34 -24 -29 -29 14 -14 61 2 68 24 8 27 4 28 -39
5z"/>
<path d="M1678 563 c7 -3 16 -2 19 1 4 3 -2 6 -13 5 -11 0 -14 -3 -6 -6z"/>
<path d="M2430 533 l-85 -23 75 6 c41 4 90 7 107 7 19 0 40 8 50 19 15 17 14
18 -23 17 -21 -1 -77 -13 -124 -26z"/>
<path d="M1487 504 c-29 -16 -28 -38 1 -30 85 22 110 31 106 38 -8 13 -77 8
-107 -8z"/>
<path d="M2270 500 c-13 -8 -12 -10 3 -10 9 0 17 5 17 10 0 12 -1 12 -20 0z"/>
<path d="M2318 503 c7 -3 16 -2 19 1 4 3 -2 6 -13 5 -11 0 -14 -3 -6 -6z"/>
<path d="M1425 490 c3 -5 8 -10 11 -10 2 0 4 5 4 10 0 6 -5 10 -11 10 -5 0 -7
-4 -4 -10z"/>
<path d="M2440 483 c-58 -8 -112 -18 -121 -23 -9 -4 -38 -12 -64 -16 -46 -6
-85 -32 -85 -55 0 -7 10 -9 24 -7 14 3 31 1 38 -3 10 -7 9 -9 -4 -9 -10 0 -18
-5 -18 -11 0 -15 45 -7 46 9 1 6 3 15 4 20 1 4 2 10 1 14 0 5 2 7 7 6 4 -1 43
10 87 24 44 15 95 26 112 26 18 -1 39 5 48 12 8 7 22 9 32 5 17 -7 16 -8 -2
-15 -19 -8 -19 -9 3 -9 12 -1 22 3 22 8 0 16 -12 41 -19 40 -3 -1 -53 -8 -111
-16z"/>
<path d="M2591 464 c0 -11 3 -14 6 -6 3 7 2 16 -1 19 -3 4 -6 -2 -5 -13z"/>
<path d="M1528 443 c7 -3 16 -2 19 1 4 3 -2 6 -13 5 -11 0 -14 -3 -6 -6z"/>
<path d="M1670 420 c0 -5 5 -10 11 -10 5 0 7 5 4 10 -3 6 -8 10 -11 10 -2 0
-4 -4 -4 -10z"/>
<path d="M2135 420 c-3 -5 -12 -7 -20 -4 -20 8 -31 -22 -15 -41 6 -8 9 -23 5
-34 -3 -10 -1 -22 5 -26 5 -3 13 2 16 12 3 10 10 27 14 38 17 39 21 65 11 65
-5 0 -12 -4 -16 -10z"/>
<path d="M1715 380 c-4 -6 5 -10 19 -10 14 0 26 5 26 10 0 6 -9 10 -19 10 -11
0 -23 -4 -26 -10z"/>
<path d="M2630 369 c0 -5 5 -7 10 -4 6 3 10 8 10 11 0 2 -4 4 -10 4 -5 0 -10
-5 -10 -11z"/>
<path d="M2475 318 c-135 -33 -165 -42 -165 -48 0 -13 13 -20 24 -11 6 4 31
11 56 14 67 9 151 37 145 47 -7 11 -5 11 -60 -2z"/>
<path d="M2051 304 c0 -11 3 -14 6 -6 3 7 2 16 -1 19 -3 4 -6 -2 -5 -13z"/>
<path d="M2223 303 c-23 -8 -14 -33 12 -33 14 0 25 4 25 9 0 14 -24 29 -37 24z"/>
<path d="M2360 1015 l-25 -14 33 -1 c22 0 32 5 32 15 0 18 -8 18 -40 0z"/>
<path d="M2130 10 c-12 -8 -11 -10 8 -10 12 0 22 5 22 10 0 13 -11 13 -30 0z"/>
</g>
</svg>
